<?xml version="1.0" encoding="UTF-8"?>
<svg width="1200pt" height="1200pt" version="1.1" viewBox="0 0 1200 1200" xmlns="http://www.w3.org/2000/svg">
 <defs>
  <clipPath id="b">
   <path d="m222.14 341h353.86v520h-353.86z"/>
  </clipPath>
  <clipPath id="a">
   <path d="m625 341h352.86v520h-352.86z"/>
  </clipPath>
 </defs>
 <path d="m387.99 600.8c0 39.691-32.176 71.863-71.863 71.863-39.691 0-71.867-32.172-71.867-71.863 0-39.691 32.176-71.867 71.867-71.867 39.688 0 71.863 32.176 71.863 71.867" fill="#ffffff" fill-rule="evenodd"/>
 <g clip-path="url(#b)">
  <path transform="matrix(13.258 0 0 13.258 240.03 521.78)" d="m11.16 5.9603c0 2.9937-2.4269 5.4203-5.4203 5.4203-2.9937 0-5.4206-2.4266-5.4206-5.4203 0-2.9937 2.4269-5.4206 5.4206-5.4206 2.9934 0 5.4203 2.4269 5.4203 5.4206" fill="none" stroke="#ffffff" stroke-width="2.5"/>
 </g>
 <path transform="matrix(13.258 0 0 13.258 240.03 521.78)" d="m32.61 5.9603c0 2.9937-2.4269 5.4203-5.4203 5.4203-2.9937 0-5.4206-2.4266-5.4206-5.4203 0-2.9937 2.4269-5.4206 5.4206-5.4206 2.9934 0 5.4203 2.4269 5.4203 5.4206" fill="#ffffff" fill-rule="evenodd" stroke="#ffffff" stroke-width="2.5"/>
 <path d="m956.77 600.8c0 39.691-32.176 71.863-71.863 71.863-39.691 0-71.867-32.172-71.867-71.863 0-39.691 32.176-71.867 71.867-71.867 39.688 0 71.863 32.176 71.863 71.867" fill="#ffffff" fill-rule="evenodd"/>
 <g clip-path="url(#a)">
  <path transform="matrix(13.258 0 0 13.258 240.03 521.78)" d="m54.06 5.9603c0 2.9937-2.4269 5.4203-5.4203 5.4203-2.9937 0-5.4206-2.4266-5.4206-5.4203 0-2.9937 2.4269-5.4206 5.4206-5.4206 2.9934 0 5.4203 2.4269 5.4203 5.4206" fill="none" stroke="#ffffff" stroke-width="2.5"/>
 </g>
</svg>
