<?xml version="1.0" encoding="UTF-8"?>
<svg width="1200pt" height="1200pt" version="1.1" viewBox="0 0 1200 1200" xmlns="http://www.w3.org/2000/svg">
 <g fill="#ffffff">
  <path d="m1110.6 483.89-109.41-25.93c-4.9648-14.012-10.668-27.75-17.082-41.16l59.062-95.738h-0.003907c2.2148-3.5938 3.1523-7.8281 2.6641-12.02s-2.3789-8.0938-5.3633-11.078l-138.4-138.4c-2.9844-2.9844-6.8867-4.8711-11.078-5.3633-4.1914-0.48828-8.4258 0.44922-12.02 2.6641l-95.738 59.062c-13.406-6.4102-27.145-12.113-41.152-17.086l-25.938-109.41c-0.97266-4.1094-3.3008-7.7695-6.6133-10.387-3.3125-2.6172-7.4102-4.043-11.633-4.043h-195.72c-4.2227 0-8.3203 1.4258-11.633 4.043-3.3125 2.6172-5.6406 6.2773-6.6133 10.387l-25.938 109.41c-14.008 4.9727-27.746 10.676-41.152 17.082l-95.738-59.062v0.003907c-3.5938-2.207-7.8281-3.1445-12.016-2.6523-4.1914 0.48828-8.0938 2.375-11.082 5.3516l-138.4 138.4c-2.9844 2.9844-4.8711 6.8867-5.3633 11.078-0.48828 4.1914 0.44922 8.4258 2.6641 12.02l59.062 95.738c-6.418 13.41-12.121 27.148-17.086 41.16l-109.41 25.93c-4.1094 0.97266-7.7695 3.3008-10.387 6.6133-2.6172 3.3125-4.043 7.4102-4.043 11.633v195.72c0 4.2227 1.4258 8.3203 4.043 11.633 2.6172 3.3125 6.2773 5.6406 10.387 6.6133l109.41 25.93c4.9648 14.012 10.668 27.75 17.082 41.16l-59.062 95.738h0.003907c-2.2148 3.5938-3.1523 7.8281-2.6641 12.02s2.3789 8.0938 5.3633 11.082l138.4 138.4h0.003906c2.9844 2.9844 6.8867 4.875 11.078 5.3633 4.1914 0.49219 8.4258-0.44922 12.02-2.6641l95.738-59.062v0.003907c13.41 6.4102 27.145 12.109 41.152 17.082l25.938 109.41c0.97266 4.1094 3.3047 7.7695 6.6133 10.387 3.3125 2.6172 7.4102 4.043 11.633 4.043h195.72c4.2227 0 8.3203-1.4258 11.633-4.043 3.3125-2.6172 5.6406-6.2773 6.6133-10.387l25.938-109.41c14.008-4.9727 27.746-10.676 41.152-17.082l95.738 59.062v-0.003907c3.5898 2.2227 7.8281 3.1641 12.02 2.6758 4.1953-0.49219 8.0977-2.3867 11.082-5.375l138.4-138.4c2.9844-2.9883 4.875-6.8906 5.3633-11.082 0.49219-4.1914-0.44922-8.4258-2.6641-12.02l-59.062-95.738 0.003907 0.003907c6.4141-13.414 12.117-27.152 17.082-41.164l109.41-25.93c4.1094-0.97266 7.7695-3.3008 10.387-6.6133 2.6172-3.3125 4.043-7.4102 4.043-11.633v-195.72c0-4.2227-1.4258-8.3203-4.043-11.633-2.6172-3.3125-6.2773-5.6406-10.387-6.6133zm-23.07 199.14-105.07 24.895v-0.003906c-6.3633 1.5078-11.48 6.2188-13.504 12.434-6.207 19.012-13.887 37.508-22.961 55.328-2.9688 5.8281-2.6836 12.785 0.75 18.355l56.727 91.957-117.44 117.43-91.957-56.727h0.003906c-5.5664-3.4414-12.527-3.7266-18.355-0.75-17.816 9.0781-36.312 16.754-55.316 22.961-6.2188 2.0234-10.93 7.1406-12.434 13.504l-24.902 105.07h-166.08l-24.902-105.07c-1.5039-6.3633-6.2148-11.48-12.434-13.504-19.004-6.207-37.5-13.887-55.316-22.961-5.8281-2.9844-12.789-2.6992-18.355 0.75l-91.957 56.727-117.43-117.44 56.727-91.957v0.003906c3.4336-5.5703 3.7188-12.527 0.75-18.355-9.0781-17.82-16.754-36.316-22.961-55.328-2.0234-6.2148-7.1406-10.926-13.504-12.434l-105.07-24.891v-166.08l105.07-24.895v0.003906c6.3633-1.5078 11.48-6.2188 13.504-12.434 6.207-19.012 13.887-37.508 22.961-55.328 2.9688-5.8281 2.6836-12.785-0.75-18.355l-56.727-91.957 117.43-117.43 91.957 56.727c5.5703 3.4375 12.527 3.7227 18.359 0.75 17.812-9.0781 36.309-16.754 55.316-22.961 6.2148-2.0234 10.926-7.1406 12.43-13.504l24.902-105.07h166.08l24.902 105.07c1.5039 6.3633 6.2148 11.48 12.434 13.504 19.004 6.207 37.5 13.887 55.316 22.961 5.832 2.9648 12.785 2.6797 18.355-0.75l91.957-56.727 117.43 117.43-56.727 91.957c-3.4336 5.5703-3.7188 12.527-0.75 18.359 9.0781 17.816 16.754 36.312 22.961 55.324 2.0234 6.2148 7.1406 10.926 13.504 12.434l105.07 24.891z"/>
  <path d="m600 334.62c-70.383 0-137.88 27.961-187.65 77.727-49.766 49.766-77.727 117.27-77.727 187.65s27.961 137.88 77.727 187.65c49.766 49.766 117.27 77.727 187.65 77.727s137.88-27.961 187.65-77.727c49.766-49.766 77.727-117.27 77.727-187.65-0.078125-70.355-28.062-137.81-77.812-187.56-49.754-49.75-117.21-77.734-187.56-77.812zm0 493.25c-60.438 0-118.4-24.008-161.13-66.742-42.734-42.734-66.742-100.7-66.742-161.13s24.008-118.4 66.742-161.13c42.734-42.734 100.7-66.742 161.13-66.742s118.4 24.008 161.13 66.742c42.734 42.734 66.742 100.7 66.742 161.13-0.070312 60.414-24.102 118.34-66.82 161.05s-100.64 66.75-161.05 66.82z"/>
 </g>
</svg>
