<?xml version="1.0" encoding="utf-8"?>
<!-- Generator: Adobe Illustrator 16.0.3, SVG Export Plug-In . SVG Version: 6.00 Build 0)  -->
<!DOCTYPE svg PUBLIC "-//W3C//DTD SVG 1.1//EN" "http://www.w3.org/Graphics/SVG/1.1/DTD/svg11.dtd">
<svg version="1.1" id="Layer_1" xmlns="http://www.w3.org/2000/svg" xmlns:xlink="http://www.w3.org/1999/xlink" x="0px" y="0px"
	viewBox="297.715 358.17 604.569 483.65"
	 enable-background="new 297.715 358.17 604.569 483.65" xml:space="preserve">
<path fill="#ffffff" d="M864.5,358.17c20.866,0,37.784,16.918,37.784,37.785S885.366,433.74,864.5,433.74h-529
	c-20.867,0-37.785-16.918-37.785-37.785s16.918-37.785,37.785-37.785H864.5z M864.5,562.21c20.866,0,37.784,16.918,37.784,37.785
	S885.366,637.78,864.5,637.78h-529c-20.867,0-37.785-16.918-37.785-37.785c0-20.871,16.918-37.785,37.785-37.785H864.5z
	 M864.5,766.25c20.866,0,37.784,16.918,37.784,37.785S885.366,841.82,864.5,841.82h-529c-20.867,0-37.785-16.918-37.785-37.785
	s16.918-37.785,37.785-37.785H864.5z"/>
</svg>
