<?xml version="1.0" encoding="UTF-8"?>
<svg  version="1.1" viewBox="0 0 1200 1200" xmlns="http://www.w3.org/2000/svg" fill="#fff">
 <path d="m194.95 624.05h-110.95c-13.266 0-24-10.734-24-24s10.734-24 24-24h110.95v-41.859c0-22.078 9.0469-42.188 23.578-56.719 14.625-14.625 34.734-23.672 56.812-23.672h37.594c22.125 0 42.281 9.0469 56.812 23.578 14.578 14.578 23.578 34.688 23.578 56.812v131.72c0 22.125-9.0469 42.281-23.578 56.812s-34.688 23.578-56.812 23.578h-37.594c-22.078 0-42.188-9.0469-56.719-23.578-14.625-14.625-23.672-34.734-23.672-56.812zm312.56-390.32h-423.52c-13.266 0-24-10.734-24-24s10.734-24 24-24h423.52v-41.859c0-22.078 9.0469-42.188 23.578-56.719 14.625-14.625 34.734-23.672 56.812-23.672h37.594c22.078 0 42.188 9.0469 56.719 23.578 14.625 14.625 23.672 34.734 23.672 56.812v131.72c0 22.125-9.0469 42.281-23.578 56.812-14.578 14.578-34.688 23.578-56.812 23.578h-37.594c-22.125 0-42.281-9.0469-56.812-23.578s-23.578-34.688-23.578-56.812zm608.48-48c13.266 0 24 10.734 24 24s-10.734 24-24 24h-339.56c-13.266 0-24-10.734-24-24s10.734-24 24-24zm-452.21 828.61h-579.79c-13.266 0-24-10.734-24-24 0-13.266 10.734-24 24-24h579.79v-41.859c0-22.031 9.0469-42.094 23.625-56.766 14.672-14.578 34.734-23.672 56.812-23.672h37.594c22.125 0 42.281 9.0469 56.812 23.578s23.578 34.688 23.578 56.812v131.72c0 22.078-9.0469 42.188-23.578 56.719-14.625 14.625-34.734 23.672-56.812 23.672h-37.594c-22.125 0-42.281-9.0469-56.812-23.578-14.578-14.578-23.578-34.688-23.578-56.812v-41.812zm452.21-48c13.266 0 24 10.734 24 24 0 13.266-10.734 24-24 24h-183.28c-13.266 0-24-10.734-24-24 0-13.266 10.734-24 24-24zm0-390.28c13.266 0 24 10.734 24 24s-10.734 24-24 24h-652.13c-13.266 0-24-10.734-24-24s10.734-24 24-24z"/>
</svg>
