<?xml version="1.0" encoding="utf-8"?>
<!-- Generator: Adobe Illustrator 16.0.3, SVG Export Plug-In . SVG Version: 6.00 Build 0)  -->
<!DOCTYPE svg PUBLIC "-//W3C//DTD SVG 1.1//EN" "http://www.w3.org/Graphics/SVG/1.1/DTD/svg11.dtd">
<svg version="1.1" id="Layer_1" xmlns="http://www.w3.org/2000/svg" xmlns:xlink="http://www.w3.org/1999/xlink" x="0px" y="0px"
	 viewBox="8.225 2.631 83.55 94.737" enable-background="new 8.225 2.631 83.55 94.737"
	 xml:space="preserve">
<g>
	<g transform="translate(50 50) scale(1) rotate(0) translate(-50 -50)">
		<g>
			<path fill="#FFFFFF" d="M25.031,43.756c-0.708,7.902,2.207,15.518,7.998,20.889c3.283,3.046,5.166,7.316,5.166,11.719v1.578
				v8.468c0,3.071,2.398,5.589,5.421,5.79c0.778,2.645,3.396,5.169,6.627,5.169c3.231,0,5.85-2.524,6.628-5.169
				c3.022-0.201,5.421-2.717,5.421-5.79v-8.468v-1.578c0-4.401,1.883-8.673,5.167-11.719c5.791-5.373,8.707-12.986,7.998-20.889
				C74.363,31.532,64.295,21.677,52.038,20.83c-1.206-0.083-2.381-0.083-3.588,0C36.195,21.677,26.126,31.532,25.031,43.756z
				 M59.134,84.302H41.355v-1.601h17.779V84.302z M50.243,94.211c-1.354,0-2.539-0.945-3.187-1.992h6.375
				C52.783,93.266,51.599,94.211,50.243,94.211z M56.483,89.061H44.006c-1.089,0-2.024-0.66-2.433-1.601h17.341
				C58.507,88.4,57.572,89.061,56.483,89.061z M59.134,79.543H41.355v-1.602h17.779V79.543z M45.372,51.473H43.3
				c-1.144,0-2.074-0.93-2.074-2.072c0-1.144,0.931-2.074,2.074-2.074c1.143,0,2.072,0.931,2.072,2.074V51.473z M48.531,54.631
				h3.427v20.153h-3.427V54.631z M48.667,23.98c1.06-0.072,2.095-0.072,3.153,0c10.725,0.74,19.533,9.363,20.49,20.057
				c0.62,6.923-1.93,13.59-6.998,18.292c-3.533,3.276-5.71,7.747-6.111,12.455h-4.085V54.631h2.074c2.884,0,5.23-2.347,5.23-5.23
				c0-2.885-2.347-5.232-5.23-5.232c-2.885,0-5.232,2.347-5.232,5.232v2.072h-3.427V49.4c0-2.885-2.347-5.232-5.23-5.232
				c-2.885,0-5.231,2.347-5.231,5.232c0,2.885,2.346,5.23,5.231,5.23h2.072v20.153h-4.085c-0.4-4.708-2.577-9.179-6.109-12.455
				c-5.068-4.702-7.62-11.369-7-18.292C29.134,33.344,37.944,24.721,48.667,23.98z M55.115,51.473V49.4
				c0-1.144,0.931-2.074,2.073-2.074c1.144,0,2.073,0.931,2.073,2.074c0,1.143-0.93,2.072-2.073,2.072H55.115z"/>
			<path fill="#FFFFFF" d="M48.571,4.305v7.335c0,0.921,0.753,1.674,1.673,1.674c0.922,0,1.674-0.754,1.674-1.674V4.305
				c0-0.921-0.753-1.674-1.674-1.674C49.323,2.631,48.571,3.385,48.571,4.305z"/>
			<path fill="#FFFFFF" d="M75.919,11.133c-0.745-0.541-1.796-0.375-2.338,0.37l-4.312,5.934c-0.541,0.745-0.374,1.797,0.371,2.338
				s1.797,0.375,2.338-0.37l4.312-5.934C76.83,12.725,76.664,11.674,75.919,11.133z"/>
			<path fill="#FFFFFF" d="M83.644,37.476l6.976-2.267c0.876-0.284,1.359-1.233,1.075-2.109c-0.284-0.875-1.233-1.359-2.109-1.074
				l-6.976,2.266c-0.876,0.285-1.359,1.234-1.075,2.109C81.82,37.276,82.768,37.761,83.644,37.476z"/>
			<path fill="#FFFFFF" d="M82.458,58.953l6.977,2.267c0.875,0.284,1.824-0.198,2.109-1.075c0.284-0.875-0.199-1.824-1.075-2.109
				l-6.976-2.266c-0.876-0.285-1.824,0.199-2.109,1.074C81.1,57.72,81.584,58.669,82.458,58.953z"/>
			<path fill="#FFFFFF" d="M71.585,73.665c-0.541-0.745-1.594-0.911-2.338-0.37s-0.912,1.594-0.371,2.338l4.312,5.934
				c0.541,0.744,1.594,0.911,2.338,0.37c0.746-0.541,0.912-1.594,0.371-2.338L71.585,73.665z"/>
			<path fill="#FFFFFF" d="M24.081,81.651c0.746,0.541,1.797,0.374,2.338-0.37l4.313-5.934c0.541-0.746,0.374-1.797-0.371-2.338
				s-1.797-0.375-2.338,0.37l-4.312,5.934C23.171,80.058,23.337,81.109,24.081,81.651z"/>
			<path fill="#FFFFFF" d="M10.416,60.757l6.976-2.267c0.876-0.284,1.359-1.233,1.075-2.109l0,0
				c-0.284-0.876-1.233-1.359-2.109-1.074l-6.976,2.266c-0.876,0.284-1.359,1.234-1.075,2.109
				C8.591,60.558,9.54,61.042,10.416,60.757z"/>
			<path fill="#FFFFFF" d="M9.532,34.746l6.976,2.266c0.876,0.285,1.824-0.198,2.109-1.074c0.284-0.875-0.199-1.824-1.074-2.109
				l-6.977-2.266c-0.875-0.285-1.824,0.198-2.109,1.074C8.173,33.512,8.656,34.462,9.532,34.746z"/>
			<path fill="#FFFFFF" d="M26.815,11.215c-0.541-0.744-1.594-0.911-2.338-0.369c-0.745,0.541-0.912,1.593-0.371,2.338l4.312,5.934
				c0.541,0.744,1.594,0.911,2.338,0.37c0.745-0.541,0.912-1.594,0.371-2.338L26.815,11.215z"/>
			<path fill="#FFFFFF" d="M50.241,29.701c2.969,0,5.858,0.832,8.356,2.408c0.262,0.165,0.553,0.243,0.841,0.243
				c0.524,0,1.037-0.261,1.337-0.737c0.465-0.738,0.244-1.713-0.493-2.178c-3.002-1.895-6.474-2.896-10.04-2.896
				c-0.872,0-1.578,0.706-1.578,1.579C48.664,28.993,49.37,29.701,50.241,29.701z"/>
			<path fill="#FFFFFF" d="M64.761,39.441c0.25,0.611,0.84,0.981,1.462,0.981c0.199,0,0.402-0.038,0.598-0.118
				c0.808-0.33,1.192-1.252,0.862-2.06c-0.622-1.517-1.442-2.95-2.438-4.259c-0.529-0.695-1.521-0.828-2.213-0.301
				c-0.695,0.527-0.828,1.519-0.301,2.212C63.562,36.987,64.243,38.18,64.761,39.441z"/>
		</g>
	</g>
</g>
</svg>
