<svg xmlns="http://www.w3.org/2000/svg" xmlns:xlink="http://www.w3.org/1999/xlink"  viewBox="0 0 100 100"><g><g transform="translate(50 50) scale(1 1) rotate(0) translate(-50 -50)" style="fill:#FFFFFF"><svg fill="#FFFFFF" xmlns="http://www.w3.org/2000/svg" data-name="Layer 1" viewBox="0 0 512 512" x="0px" y="0px"><title>p</title><path d="M136.68,123.21A34.59,34.59,0,0,0,91.31,71a251.26,251.26,0,1,0,327.85-1.32,34.59,34.59,0,0,0-44.95,52.6,181.94,181.94,0,0,1,63.86,138.49c0,100.39-81.68,182.07-182.07,182.07S73.93,361.13,73.93,260.74A182.09,182.09,0,0,1,136.68,123.21Z"></path><path d="M290.59,277V34.59a34.59,34.59,0,0,0-69.19,0V277A34.59,34.59,0,1,0,290.59,277Z"></path></svg></g></g></svg>
