<svg height='100px' width='100px'  fill="#FFFFFF" xmlns="http://www.w3.org/2000/svg" xmlns:xlink="http://www.w3.org/1999/xlink" xml:space="preserve" version="1.1" style="shape-rendering:geometricPrecision;text-rendering:geometricPrecision;image-rendering:optimizeQuality;" viewBox="0 0 222 222" x="0px" y="0px" fill-rule="evenodd" clip-rule="evenodd"><defs><style type="text/css">
   
    .fil0 {fill:#FFFFFF}
   
  </style></defs><g><path class="fil0" d="M218 30l-26 -26c-5,-5 -12,-5 -17,0l-64 64 -64 -64c-5,-5 -13,-5 -17,0l-26 26c-5,4 -5,12 0,17l64 64 -64 64c-5,5 -5,12 0,17l26 26c4,5 12,5 17,0l64 -64 64 64c5,5 12,5 17,0l26 -26c5,-5 5,-12 0,-17l-64 -64 64 -64c5,-5 5,-13 0,-17z"></path></g></svg>