<?xml version="1.0" encoding="UTF-8"?>
<svg version="1.1" viewBox="0 0 1200 1200" xmlns="http://www.w3.org/2000/svg" fill="#fff">
 <path d="m997.13 900 63.75 63.75c-15.094 7.3125-31.594 11.156-48.375 11.25h-825c-16.781-0.09375-33.281-3.9375-48.375-11.25l332.63-332.63 61.875 55.5c18.141 16.547 41.812 25.781 66.375 25.875 24.656-0.28125 48.375-9.4688 66.75-25.875l61.5-55.125zm-412.5-269.63c4.3594 4.5 10.406 7.0781 16.688 7.0781s12.328-2.5781 16.688-7.0781l367.13-330.37 72.75-65.25c-14.297-6.3281-29.766-9.6562-45.375-9.75h-825c-15.609 0.09375-31.078 3.4219-45.375 9.75l72.75 65.25zm-167.63-49.5-267-238.13-62.25-55.875c-8.2969 15.609-12.656 32.953-12.75 50.625v525c0.046875 16.641 3.8906 33.094 11.25 48l63.75-63.75zm695.26-294-62.25 55.875-265.87 238.13 265.87 266.26 63.75 63.75c7.3125-15.094 11.156-31.594 11.25-48.375v-525c-0.09375-17.672-4.4531-35.016-12.75-50.625z"/>
</svg>
