<?xml version="1.0" encoding="UTF-8"?>
<svg version="1.1" viewBox="0 0 1200 1200" xmlns="http://www.w3.org/2000/svg" fill="#fff">
 <g>
  <path d="m975 150h-750c-68.906 0-125.02 56.062-125.02 125.02v650.02c0 68.906 56.062 125.02 125.02 125.02h750c68.906 0 125.02-56.062 125.02-125.02v-650.02c0-68.906-56.062-125.02-125.02-125.02zm-750 50.016h750c41.344 0 75 33.656 75 75v75h-900v-75c0-41.344 33.656-75 75-75zm750 799.97h-750c-41.344 0-75-33.656-75-75v-525h900v525c0 41.344-33.656 75-75 75z"/>
  <path d="m262.5 275.02c0 49.969-75 49.969-75 0 0-50.016 75-50.016 75 0"/>
  <path d="m375 275.02c0 49.969-75 49.969-75 0 0-50.016 75-50.016 75 0"/>
  <path d="m487.5 275.02c0 49.969-75 49.969-75 0 0-50.016 75-50.016 75 0"/>
  <path d="m664.97 494.95c-13.594-23.484-37.875-37.5-64.969-37.5s-51.422 14.062-64.969 37.5l-188.39 326.34c-13.547 23.484-13.547 51.562 0 75.047 13.547 23.438 37.828 37.453 64.969 37.453h376.78c27.141 0 51.422-14.016 64.969-37.5 13.594-23.484 13.547-51.516 0-75zm145.08 376.31c-2.1562 3.75-8.625 12.516-21.656 12.516h-376.78c-13.031 0-19.453-8.7656-21.656-12.516-2.1562-3.75-6.5156-13.734 0-24.984l188.39-326.34c6.5156-11.297 17.297-12.516 21.656-12.516s15.141 1.2188 21.656 12.516l188.39 326.34c6.5156 11.297 2.2031 21.234 0 24.984z"/>
  <path d="m631.26 820.64c0 41.672-62.531 41.672-62.531 0s62.531-41.672 62.531 0"/>
  <path d="m600 764.34c13.781 0 24.984-11.156 24.984-24.984v-150c0-13.828-11.203-24.984-24.984-24.984s-24.984 11.156-24.984 24.984v150c0 13.828 11.203 24.984 24.984 24.984z"/>
 </g>
</svg>
