<?xml version="1.0" encoding="UTF-8"?>
<svg  version="1.1" viewBox="0 0 1200 1200" xmlns="http://www.w3.org/2000/svg" fill="#fff">
 <g>
  <path d="m1041.2 1149.1-133.31-341.81c-2.4375-7.2656-10.922-12.141-18.188-12.141h-72.75c-14.531 20.625-29.109 41.203-43.641 61.828-33.938 48.469-70.312 98.203-101.81 149.11-14.531 23.016-39.984 37.594-66.656 37.594-26.672 0-53.344-14.531-66.656-37.594-31.5-50.906-66.656-100.59-100.59-149.11-14.531-20.625-29.109-41.203-43.641-63.047h-92.109c-8.4844 0-15.75 4.8281-18.188 12.141l-133.31 341.81c-2.4375 6.0469-1.2188 13.312 2.4375 18.188 3.6562 4.8281 9.7031 8.4844 16.969 8.4844h855.74c6.0469 0 13.312-3.6562 16.969-8.4844 3.5625-4.8281 1.125-10.922-1.2656-16.969z"/>
  <path d="m603.66 23.016c-174.56 0-316.4 141.84-316.4 316.36-2.4375 191.53 96.984 332.11 202.4 480 35.156 48.469 70.312 99.375 103.03 152.72 2.4375 3.6562 6.0469 6.0469 10.922 6.0469 3.6562 0 8.4844-2.4375 10.922-6.0469 32.719-53.344 69.094-104.25 104.25-153.94 104.25-147.84 204.84-288.47 201.24-478.78 0-174.52-141.84-316.36-316.36-316.36zm0 442.45c-69.094 0-126.05-56.953-126.05-126.05s56.953-126.05 126.05-126.05 126.05 56.953 126.05 126.05c0 69.047-56.953 126.05-126.05 126.05z"/>
 </g>
</svg>
