<?xml version="1.0" encoding="UTF-8"?>
<svg version="1.1" viewBox="0 0 1200 1200" xmlns="http://www.w3.org/2000/svg" fill="#fff">
 <path d="m941.64 767.66c73.551 40.875 147.14 81.75 220.69 122.62 31.66 17.574 45.543 54.879 33.082 88.891-63.281 172.87-248.61 264.12-422.99 200.47-357.07-130.34-621.76-395.02-752.09-752.09-63.645-174.38 27.602-359.71 200.47-422.99 34.016-12.461 71.316 1.4219 88.934 33.082 40.832 73.551 81.707 147.14 122.58 220.69 19.16 34.5 14.652 75.457-11.566 104.93-34.34 38.641-68.68 77.281-103.02 115.88 73.305 178.52 224.58 329.79 403.1 403.1 38.602-34.34 77.242-68.68 115.88-103.02 29.508-26.223 70.422-30.727 104.93-11.566z" fill-rule="evenodd"/>
</svg>
