<?xml version="1.0" encoding="UTF-8"?>
<svg  version="1.1" viewBox="0 0 1200 1200" xmlns="http://www.w3.org/2000/svg" fill="#fff">
 <g>
  <path d="m908.81 1161.8c-204.24 0-419.9-99.984-599.86-279.89-166.82-166.82-265.74-365.44-278.48-559.31-4.5938-69.703 23.109-138.74 74.109-184.74 42.797-38.625 86.344-65.016 129.42-78.562 45.938-14.344 96.562 4.6875 123.19 46.359 61.969 96.984 99.609 187.4 115.12 276.47 5.8125 33.234-4.7812 68.109-28.266 93.281l-60.141 64.266c-6.3281 6.75-7.0781 16.969-1.875 24.844 31.734 48.141 68.672 93.375 109.78 134.48 54.047 54.047 114.28 100.22 179.06 137.21 7.0312 4.0312 16.359 2.7188 22.641-3.1406l55.734-52.219c25.172-23.578 60.047-34.172 93.422-28.359 89.109 15.562 179.44 53.203 276.24 114.98 41.953 26.766 60.891 77.906 46.078 124.36-6.2344 19.5-15.141 39.234-26.438 58.594-35.906 61.594-101.3 102.33-174.84 108.94-18.188 1.6406-36.516 2.4375-54.891 2.4375zm-643.6-1058.7c-5.5781 0-11.203 0.79688-16.688 2.5312-36.375 11.391-73.875 34.359-111.42 68.25-40.031 36.141-61.828 90.562-58.172 145.6 11.953 182.06 105.84 369.66 264.37 528.19 185.95 185.95 410.53 282.05 616.08 263.44 57.938-5.2031 109.27-37.031 137.34-85.031 9.5156-16.312 16.969-32.766 22.125-48.938 8.1562-25.5-2.5312-53.766-25.969-68.719-91.266-58.266-175.82-93.609-258.52-108.09-18.422-3.1875-37.781 2.7656-51.891 15.984l-55.781 52.266c-21.656 20.297-54.516 24.375-79.875 9.8906-68.531-39.141-132.19-87.891-189.28-145.03-43.453-43.406-82.453-91.219-116.02-142.08-17.578-26.672-14.766-61.5 6.9375-84.703l60.141-64.266c13.172-14.062 19.125-33.422 15.938-51.797-14.391-82.641-49.781-167.26-108.23-258.71-11.625-18.281-31.172-28.781-51.094-28.781z"/>
  <path d="m1145.7 632.44c-13.406 0-24.234-10.875-24.234-24.234 0-287.53-233.95-521.48-521.48-521.48-13.406 0-24.234-10.875-24.234-24.234 0-13.406 10.875-24.234 24.234-24.234 314.29 0 570 255.71 570 570-0.046875 13.312-10.875 24.188-24.281 24.188z"/>
  <path d="m948.47 632.44c-13.406 0-24.234-10.875-24.234-24.234 0-178.78-145.45-324.24-324.24-324.24-13.406 0-24.234-10.875-24.234-24.234 0-13.406 10.875-24.234 24.234-24.234 205.55 0 372.74 167.21 372.74 372.74-0.046875 13.312-10.875 24.188-24.281 24.188z"/>
 </g>
</svg>
