<?xml version="1.0" encoding="UTF-8"?>
<svg  version="1.1" viewBox="0 0 1200 1200" xmlns="http://www.w3.org/2000/svg" fill="#fff"> 
 <path d="m386.64 402 49.68 8.7617c5.8281 21.629 14.465 42.406 25.68 61.797l-28.922 41.281c-5.1758 7.3477-7.5977 16.289-6.8281 25.246 0.76953 8.957 4.6758 17.355 11.031 23.715l29.762 29.762-0.003907-0.003906c6.3594 6.3555 14.758 10.262 23.715 11.031 8.957 0.76953 17.898-1.6523 25.246-6.8281l41.281-28.922c19.395 11.215 40.168 19.848 61.797 25.68l8.7617 49.68c1.5508 8.8359 6.168 16.844 13.035 22.617 6.8711 5.7695 15.555 8.9375 24.523 8.9453h42.602c8.9727-0.007813 17.656-3.1758 24.523-8.9453 6.8711-5.7734 11.484-13.781 13.035-22.617l8.7617-49.68c21.59-5.8398 42.324-14.473 61.68-25.68l41.281 28.922c7.3477 5.1758 16.289 7.5977 25.246 6.8281 8.957-0.76953 17.355-4.6758 23.711-11.031l29.762-29.758c6.3555-6.3594 10.262-14.758 11.031-23.715 0.76562-8.957-1.6523-17.898-6.832-25.246l-29.398-41.281c11.047-19.418 19.52-40.191 25.199-61.797l49.68-8.7617c8.8359-1.5508 16.844-6.168 22.617-13.035 5.7695-6.8711 8.9375-15.555 8.9414-24.523v-42.121c-0.003906-8.9727-3.1719-17.656-8.9414-24.523-5.7734-6.8711-13.781-11.484-22.617-13.035l-49.68-8.7617c-5.832-21.629-14.465-42.406-25.68-61.801l28.922-41.281-0.003907 0.003906c5.3047-7.2422 7.8867-16.117 7.293-25.07-0.58984-8.957-4.3203-17.414-10.531-23.891l-30.238-29.762c-6.3438-6.3711-14.734-10.301-23.695-11.09-8.957-0.79297-17.906 1.6055-25.266 6.7695l-40.801 28.922c-19.395-11.219-40.168-19.852-61.801-25.68l-8.7617-49.68h0.003906c-1.5742-8.7969-6.1836-16.758-13.023-22.504-6.8438-5.7461-15.484-8.9102-24.418-8.9375h-42.719c-8.9727 0.003906-17.656 3.1719-24.523 8.9453-6.8711 5.7695-11.484 13.777-13.039 22.613l-8.7617 49.68h0.003907c-21.625 5.7969-42.402 14.391-61.801 25.562l-41.16-28.922c-7.3633-5.1641-16.312-7.5625-25.27-6.7695-8.957 0.78906-17.348 4.7188-23.691 11.09l-29.762 29.762h0.003906c-6.3555 6.3594-10.262 14.758-11.031 23.715s1.6523 17.895 6.8281 25.246l28.922 41.281v-0.003906c-11.258 19.387-19.93 40.164-25.801 61.801l-49.68 8.7617c-8.8359 1.5508-16.844 6.1641-22.613 13.035-5.7734 6.8672-8.9414 15.551-8.9453 24.523v42.121c0.011718 8.9883 3.1953 17.684 8.9883 24.555 5.7969 6.8711 13.832 11.477 22.691 13.004zm300-200.4c37.566 0.09375 73.555 15.102 100.06 41.719 26.508 26.621 41.359 62.672 41.297 100.24s-15.039 73.57-41.637 100.1c-26.598 26.531-62.637 41.414-100.2 41.383s-73.582-14.977-100.13-41.551c-26.551-26.574-41.469-62.602-41.469-100.17 0.066406-37.59 15.031-73.617 41.621-100.18 26.59-26.566 62.633-41.504 100.22-41.535zm-397.44 986.4-237.96-231.84 170.4-169.32h0.003906c34.609-34.375 78.199-58.312 125.78-69.074 47.582-10.758 97.227-7.9062 143.26 8.2344l37.32 13.078h230.4c19.586-0.011719 38.328 7.9492 51.914 22.055 13.586 14.105 20.84 33.137 20.086 52.707-1.082 19.215-9.5547 37.266-23.648 50.375-14.09 13.105-32.707 20.254-51.949 19.945h-137.76c-10.074 0-19.383 5.375-24.422 14.102-5.0352 8.7227-5.0352 19.473 0 28.199 5.0391 8.7227 14.348 14.098 24.422 14.098h138.24c33.734 0.023437 66.199-12.871 90.727-36.035 24.523-23.164 39.25-54.84 41.152-88.523v-1.8008l127.92-144h-0.003906c13.02-15.031 31.324-24.477 51.121-26.375 19.793-1.9023 39.562 3.8906 55.199 16.176 15.785 12.965 25.633 31.781 27.285 52.141 1.6484 20.363-5.0352 40.52-18.523 55.859l-255.36 291.96c-16.812 19.285-37.559 34.746-60.844 45.344-23.285 10.602-48.574 16.086-74.156 16.094h-384zm321.72-844.68c0-20.02 7.9492-39.219 22.105-53.371 14.156-14.156 33.355-22.109 53.371-22.109 20.02 0 39.219 7.9531 53.375 22.109 14.152 14.152 22.105 33.352 22.105 53.371 0 20.02-7.9531 39.219-22.105 53.371-14.156 14.156-33.355 22.109-53.375 22.109-20.016 0-39.215-7.9531-53.371-22.109-14.156-14.152-22.105-33.352-22.105-53.371z"/>
</svg>
