<?xml version="1.0" encoding="UTF-8"?>
<svg  version="1.1" viewBox="0 0 1200 1200" xmlns="http://www.w3.org/2000/svg" fill="#fff">
 <path d="m839.16 362.12 8.2188 16.008-29.438 36.77-24.086 8.1133c-1.6328 0.55078-3.1328 1.4883-4.3203 2.6758l-11.062 11.051-133.41 133.37-3.1211-3.875c-0.98438-1.2227-2.0742-2.4375-3.2383-3.6133-1.1523-1.1523-2.3516-2.2305-3.6719-3.3242l-3.8047-3.1211 133.34-133.36 11.039-11.062c1.1875-1.1875 2.125-2.6875 2.6875-4.3438l8.1016-24.059 36.758-29.41zm-47.137 369.26c2.1016-2.1016 4.8945-3.2656 7.8828-3.2656s5.7852 1.1641 7.8945 3.2656l62.688 62.762 0.32422-10.32c0.78125-25.246-8.9414-49.883-26.676-67.559-16.992-16.992-40.598-26.746-64.766-26.746-9.3125 0-18.504 1.4141-27.336 4.1992l-1.043 0.32422-58.262 58.211-0.32422 1.043c-10.117 32.148-1.2734 68.293 22.535 92.102 16.992 16.992 40.645 26.734 64.883 26.734 0.89844 0 1.8008-0.011719 2.6992-0.035157l10.332-0.30078-62.762-62.762c-2.1133-2.125-3.2773-4.9453-3.2773-7.9219 0-2.9141 1.1992-5.7969 3.2656-7.8828zm-383.95-260.2c-2.125 2.1133-4.9453 3.2773-7.9219 3.2773-2.9141 0-5.7969-1.1992-7.8828-3.2656l-62.762-62.762-0.3125 10.32c-0.75781 25.223 8.9648 49.859 26.699 67.586 16.98 16.98 40.598 26.723 64.789 26.723 9.3125 0 18.516-1.4141 27.359-4.1992l1.043-0.32422 58.188-58.188 0.32422-1.043c10.141-32.184 1.2852-68.34-22.535-92.102-16.992-17.004-40.598-26.762-64.789-26.762-0.92578 0-1.8359 0.011719-2.7617 0.035156l-10.309 0.3125 62.711 62.785c4.3438 4.3438 4.3438 11.426 0 15.781zm206.47 178c-0.82812 0.26562-1.668 0.51562-2.4961 0.73047l-1.2734 0.33594-6.2539 1.6328 78.504 78.504 46.141-46.066-76.895-76.859-2.3047 6.8281c-2.6758 8.0273-7.1406 15.191-13.211 21.289-5.7344 5.6875-12.336 9.9492-19.656 12.695-0.83594 0.33594-1.7031 0.62109-2.5547 0.91016zm-22.066-4.5586-35.809-35.785-37.488 2.9414-173.72 173.71-2.8906 37.441 35.809 35.832 37.43-2.9141 173.79-173.71zm11.531-73.848c-8.207 0-16.402 3.4922-22.488 9.5742-3.1094 3.1094-5.5195 6.6836-7.1992 10.633l-1.1758 2.7734 34.379 34.379 2.7461-1.1406c3.9609-1.6445 7.5703-4.0547 10.738-7.1992 11.914-11.977 12.77-30.539 1.8828-41.398-4.9023-4.9219-11.609-7.6211-18.883-7.6211zm-133.12-52.523 78.527 78.527 1.6094-6.1797 0.35938-1.3438c0.22656-0.80469 0.44531-1.6094 0.71875-2.4375 0.26562-0.875 0.57422-1.7656 0.91016-2.6992 2.7461-7.2969 7.0312-13.871 12.719-19.586 6.0977-6.0977 13.246-10.523 21.301-13.223l6.8281-2.293-76.895-76.836zm638.63-69.156v-40.246c0-186.73-151.92-338.63-338.65-338.63l-341.73-0.003906c-186.71 0-338.59 151.91-338.59 338.63v40.246c-34.355 2.1484-61.668 30.805-61.668 65.746v315.56c0 36.301 29.531 65.832 65.832 65.832h111.17c8.6289 0 15.637-7.0078 15.637-15.613v-416.04c0-8.6289-7.0078-15.637-15.637-15.637h-30.277v-40.094c0-139.81 113.73-253.59 253.52-253.59h341.73c139.84 0 253.59 113.77 253.59 253.59v40.094h-30.336c-8.6289 0-15.637 7.0078-15.637 15.637v416.04c0 8.6172 7.0078 15.613 15.637 15.613h65.062v29.844c0 60.254-48.996 109.27-109.21 109.27l-274.12 0.003906c-7.6797-34.777-38.773-60.898-75.828-60.898-42.816 0-77.664 34.848-77.664 77.652 0 42.828 34.848 77.664 77.664 77.664 37.859 0 69.516-27.238 76.297-63.168h273.67c77.449 0 140.46-63.035 140.46-140.52v-29.844h14.867c36.301 0 65.832-29.531 65.832-65.832v-315.57c-0.011718-34.918-27.277-63.586-61.609-65.746z"/>
</svg>
