<?xml version="1.0" encoding="UTF-8"?>
<svg  version="1.1" viewBox="0 0 1200 1200" xmlns="http://www.w3.org/2000/svg" fill="#fff">
 <path d="m765.19 1106.4c14.438-4.6797 29.953 3.2031 34.633 17.641 4.6797 14.438-3.2031 29.953-17.641 34.633-28.836 9.3945-58.859 16.668-89.785 21.562-30.457 4.8242-61.344 7.3438-92.375 7.3438-162.25 0-309.17-65.773-415.52-172.12s-172.12-253.26-172.12-415.52c0-162.25 65.773-309.17 172.12-415.52s253.26-172.12 415.52-172.12c162.25 0 309.17 65.773 415.52 172.12s172.12 253.26 172.12 415.52c0 46.262-5.3984 91.367-15.551 134.71-10.477 44.676-26.027 87.301-45.973 127.26-9.793 19.656-21.422 36.109-34.418 49.645-29.305 30.672-64.91 45.863-101.66 49.211-35.676 3.2031-72.074-4.9688-104.44-21.133-15.516-7.7383-30.242-17.387-43.598-28.547-229.83 130.5-727.46-386.64-527.77-586.34l42.156-42.191c19.547-19.547 51.48-19.547 71.027 0l64.836 64.836c19.547 19.547 19.547 51.48 0 71.027l-53.281 53.281c-48.203 96.371 192.93 337.47 289.3 289.3l53.281-53.281c19.547-19.547 51.48-19.547 71.027 0l64.836 64.836c19.547 19.547 19.547 51.48 0 71.027l-31.859 31.859c7.7031 5.6523 15.949 10.656 24.551 14.941 23.867 11.918 50.113 18 75.168 15.73 23.977-2.1602 47.27-12.168 66.602-32.398 9.1797-9.6133 17.566-21.602 24.914-36.324 18.109-36.324 32.219-74.918 41.652-115.2 9.2148-39.168 14.074-80.066 14.074-122.22 0-147.06-59.617-280.19-155.95-376.56-96.371-96.371-229.5-155.95-376.56-155.95-147.06 0-280.19 59.617-376.56 155.95-96.371 96.371-155.95 229.5-155.95 376.56 0 147.06 59.617 280.19 155.95 376.56 96.371 96.371 229.5 155.95 376.56 155.95 28.91 0 56.879-2.1953 83.773-6.4805 27.758-4.3906 54.938-11.016 81.398-19.621z"/>
</svg>
