<?xml version="1.0" encoding="UTF-8"?>
<svg  version="1.1" viewBox="0 0 1200 1200" xmlns="http://www.w3.org/2000/svg" fill="#fff">
 <g>
  <path d="m431.26 206.26c-0.046874-72.422-58.969-131.26-131.26-131.26h-93.75c-72.375 0-131.26 58.875-131.26 131.26v787.5c0 72.375 58.875 131.26 131.26 131.26h93.75c72.281 0 131.21-58.875 131.26-131.26z"/>
  <path d="m1031.3 75h-625.5c4.3125 3.375 8.25 6.9375 12.188 10.875 32.812 31.875 50.812 74.625 50.812 120.37v787.5c0 45.75-18 88.5-50.812 120.56-3.9375 3.75-7.875 7.3125-12 10.688h625.31c51.75 0 93.75-42 93.75-93.75v-862.5c0-51.75-42-93.75-93.75-93.75zm-375 900c0 20.625-16.875 37.5-37.5 37.5h-37.5c-20.625 0-37.5-16.875-37.5-37.5v-37.5c0-20.625 16.875-37.5 37.5-37.5h37.5c20.625 0 37.5 16.875 37.5 37.5zm0-187.5c0 20.625-16.875 37.5-37.5 37.5h-37.5c-20.625 0-37.5-16.875-37.5-37.5v-37.5c0-20.625 16.875-37.5 37.5-37.5h37.5c20.625 0 37.5 16.875 37.5 37.5zm0-187.5c0 20.625-16.875 37.5-37.5 37.5h-37.5c-20.625 0-37.5-16.875-37.5-37.5v-37.5c0-20.625 16.875-37.5 37.5-37.5h37.5c20.625 0 37.5 16.875 37.5 37.5zm187.5 375c0 20.625-16.875 37.5-37.5 37.5h-37.5c-20.625 0-37.5-16.875-37.5-37.5v-37.5c0-20.625 16.875-37.5 37.5-37.5h37.5c20.625 0 37.5 16.875 37.5 37.5zm0-187.5c0 20.625-16.875 37.5-37.5 37.5h-37.5c-20.625 0-37.5-16.875-37.5-37.5v-37.5c0-20.625 16.875-37.5 37.5-37.5h37.5c20.625 0 37.5 16.875 37.5 37.5zm0-187.5c0 20.625-16.875 37.5-37.5 37.5h-37.5c-20.625 0-37.5-16.875-37.5-37.5v-37.5c0-20.625 16.875-37.5 37.5-37.5h37.5c20.625 0 37.5 16.875 37.5 37.5zm187.5 375c0 20.625-16.875 37.5-37.5 37.5h-37.5c-20.625 0-37.5-16.875-37.5-37.5v-37.5c0-20.625 16.875-37.5 37.5-37.5h37.5c20.625 0 37.5 16.875 37.5 37.5zm0-187.5c0 20.625-16.875 37.5-37.5 37.5h-37.5c-20.625 0-37.5-16.875-37.5-37.5v-37.5c0-20.625 16.875-37.5 37.5-37.5h37.5c20.625 0 37.5 16.875 37.5 37.5zm0-187.5c0 20.625-16.875 37.5-37.5 37.5h-37.5c-20.625 0-37.5-16.875-37.5-37.5v-37.5c0-20.625 16.875-37.5 37.5-37.5h37.5c20.625 0 37.5 16.875 37.5 37.5zm37.5-187.5c0 20.625-16.875 37.5-37.5 37.5h-487.5c-20.625 0-37.5-16.875-37.5-37.5v-225c0-20.625 16.875-37.5 37.5-37.5h487.5c20.625 0 37.5 16.875 37.5 37.5z"/>
  <path d="m956.26 937.5h37.5v37.5h-37.5z"/>
  <path d="m768.74 937.5h37.5v37.5h-37.5z"/>
  <path d="m581.26 937.5h37.5v37.5h-37.5z"/>
  <path d="m581.26 750h37.5v37.5h-37.5z"/>
  <path d="m768.74 750h37.5v37.5h-37.5z"/>
  <path d="m956.26 750h37.5v37.5h-37.5z"/>
  <path d="m956.26 562.5h37.5v37.5h-37.5z"/>
  <path d="m768.74 562.5h37.5v37.5h-37.5z"/>
  <path d="m581.26 562.5h37.5v37.5h-37.5z"/>
  <path d="m543.74 187.5h487.5v225h-487.5z"/>
 </g>
</svg>
