<?xml version="1.0" encoding="UTF-8"?>
<svg version="1.1" viewBox="0 0 1200 1200" xmlns="http://www.w3.org/2000/svg" fill="#fff">
 <path d="m1125 562.5c-6.2344-84.891-33.281-166.92-78.75-238.87-13.641-21.516-28.969-41.953-45.75-61.125-79.969-94.734-190.92-158.11-313.13-178.87-16.5-2.625-33-4.5-49.875-5.625h-75c-14.578 0.84375-29.109 2.4844-43.5 4.875-124.74 19.266-238.22 83.109-319.5 179.63-16.781 19.172-32.109 39.609-45.75 61.125-45.469 71.953-72.516 153.98-78.75 238.87v75c6.2344 84.891 33.281 166.92 78.75 238.87 13.641 21.516 28.969 41.953 45.75 61.125 79.969 94.734 190.92 158.11 313.13 178.87 16.5 2.625 33 4.5 49.875 5.625h75c14.578-0.84375 29.109-2.4844 43.5-4.875 124.74-19.266 238.22-83.109 319.5-179.63 16.875-19.641 32.156-40.594 45.75-62.625 45.234-71.531 72.234-153 78.75-237.37zm-75 0h-150c-6.0938-61.172-18.656-121.5-37.5-180 38.016-8.6719 75.562-19.312 112.5-31.875 42.75 63.047 68.531 135.98 75 211.87zm-256.87 241.13c-51.469-8.8125-103.45-14.203-155.63-16.125v-150h187.5c-3.4219 56.625-14.672 112.55-33.375 166.13zm-416.26-166.13h185.63v150c-50.25 1.5-100.41 6.375-150 14.625-17.859-53.391-29.812-108.61-35.625-164.63zm31.5-241.13c50.953 9 102.42 14.391 154.13 16.125v150h-187.5c3.4219-56.625 14.672-112.55 33.375-166.13zm416.63 166.13h-187.5v-150c50.297-1.6406 100.41-6.6562 150-15 18.469 53.484 31.031 108.8 37.5 165zm100.88-274.13c-30 9.375-59.25 16.875-87.75 22.875-18.797-45.094-41.906-88.312-69-129 58.547 24 111.38 60.188 154.87 106.12zm-163.13 37.5c-41.438 6.5625-83.297 10.453-125.26 11.625v-187.5h13.125c45.938 52.078 83.156 111.19 110.25 175.13zm-200.26-175.87v187.5c-42.047-1.3125-84-5.1094-125.63-11.25 30.375-63.234 69.938-121.6 117.38-173.26zm-127.13 29.625c-29.203 40.688-54.328 84.141-75 129.74-29.625-6.375-58.125-14.25-85.125-22.5 45.094-46.453 99.703-82.5 160.13-105.75zm-210.37 171c34.125 11.625 70.125 22.125 108.38 31.125-18.938 58.547-30.188 119.3-33.375 180.74h-150c6.2812-75.938 32.109-148.92 75-211.87zm-75 286.87h150c6.0938 61.172 18.656 121.5 37.5 180-38.016 8.625-75.609 19.266-112.5 31.875-42.891-62.953-68.719-135.94-75-211.87zm124.5 274.13c27.75-8.625 57-16.5 87.75-22.875 18.797 45.094 41.906 88.312 69 129-58.688-23.953-111.61-60.141-155.26-106.12zm162.74-37.5c41.484-6.3281 83.297-10.219 125.26-11.625v187.5h-13.125c-45.891-52.312-83.25-111.52-110.62-175.5zm200.26 175.87v-187.5c41.953 1.4062 83.766 5.2969 125.26 11.625-30.375 63.047-69.797 121.26-117 172.87zm127.13-29.625c29.344-40.594 54.469-84.047 75-129.74 27.75 6 56.25 13.5 85.5 22.5-45.188 46.5-99.938 82.547-160.5 105.75zm210.37-171c-35.672-12.234-71.953-22.5-108.75-30.75 19.125-58.641 30.469-119.53 33.75-181.13h150c-6.4688 75.891-32.25 148.82-75 211.87z"/>
</svg>
