<?xml version="1.0" encoding="utf-8"?>
<!-- Generator: Adobe Illustrator 16.0.3, SVG Export Plug-In . SVG Version: 6.00 Build 0)  -->
<!DOCTYPE svg PUBLIC "-//W3C//DTD SVG 1.1//EN" "http://www.w3.org/Graphics/SVG/1.1/DTD/svg11.dtd">
<svg version="1.1" id="Layer_1" xmlns="http://www.w3.org/2000/svg" xmlns:xlink="http://www.w3.org/1999/xlink" x="0px" y="0px"
	 width="801.318px" height="1104.009px" viewBox="199.38 48 801.318 1104.009" enable-background="new 199.38 48 801.318 1104.009"
	 xml:space="preserve">
<g>
	<path fill="#FFFFFF" d="M600.009,152.881c-98.051,0-177.836,78.614-177.836,175.308v227.447c0,96.656,79.781,175.31,177.836,175.31
		s177.836-78.615,177.836-175.31V328.189C777.845,231.491,698.064,152.881,600.009,152.881z M700.085,555.597
		c0,53.813-44.908,97.549-100.076,97.549c-55.171,0-100.076-43.74-100.076-97.549V328.148c0-53.77,44.906-97.507,100.076-97.507
		s100.076,43.74,100.076,97.548V555.597z"/>
	<path fill="#FFFFFF" d="M924.575,560.036c0-21.5-17.419-38.88-38.88-38.88c-21.462,0-38.88,17.38-38.88,38.88
		c0,133.204-110.695,241.557-246.775,241.557c-136.079,0-246.772-108.36-246.772-241.557c0-21.5-17.418-38.88-38.88-38.88
		s-38.88,17.38-38.88,38.88c0,163.061,124.998,297.78,285.654,316.798v92.534H474.97c-21.462,0-38.88,17.38-38.88,38.88
		s17.418,38.88,38.88,38.88h250.15c21.462,0,38.882-17.38,38.882-38.88s-17.42-38.88-38.882-38.88h-86.199v-92.533
		C799.577,857.821,924.575,723.104,924.575,560.036L924.575,560.036z"/>
</g>
</svg>
