<?xml version="1.0" encoding="utf-8"?>
<!-- Generator: Adobe Illustrator 16.0.3, SVG Export Plug-In . SVG Version: 6.00 Build 0)  -->
<!DOCTYPE svg PUBLIC "-//W3C//DTD SVG 1.1//EN" "http://www.w3.org/Graphics/SVG/1.1/DTD/svg11.dtd">
<svg version="1.1" id="Layer_1" xmlns="http://www.w3.org/2000/svg" xmlns:xlink="http://www.w3.org/1999/xlink" x="0px" y="0px"
	 width="565.517px" height="447.062px" viewBox="14.882 197.113 565.517 447.062"
	 enable-background="new 14.882 197.113 565.517 447.062" xml:space="preserve">
<path fill="#FFFFFF" d="M442.293,320.938c-10.12-10.12-26.788-9.523-36.907,0.596c-10.12,10.119-9.524,26.787,0.595,36.906
	c17.264,16.668,26.788,38.693,26.788,62.505c0,23.81-9.524,45.835-26.192,62.503c-10.12,10.121-10.715,26.789-0.596,36.908
	c5.357,5.357,11.906,7.738,19.049,7.738c6.549,0,13.098-2.381,17.858-7.143c27.383-26.193,42.266-61.91,42.266-100.008
	C484.558,382.847,469.676,347.129,442.293,320.938z"/>
<path fill="#FFFFFF" d="M501.821,245.933c-10.715-9.524-27.383-8.929-36.907,2.381c-9.523,10.715-8.929,27.384,2.383,36.907
	c38.691,34.525,60.718,83.936,60.718,135.724c0,51.79-22.025,101.196-60.718,135.724c-10.717,9.523-11.906,26.191-1.786,36.906
	c5.356,5.953,12.501,8.93,19.645,8.93c5.952,0,12.501-2.381,17.264-6.549c49.407-44.645,77.98-108.34,77.98-175.011
	C580.398,354.273,551.823,290.579,501.821,245.933z"/>
<path fill="#FFFFFF" d="M14.882,330.461v180.965c0,14.287,11.905,26.193,26.192,26.193H138.7V304.27H41.074
	C26.787,304.27,14.882,316.176,14.882,330.461z"/>
<path fill="#FFFFFF" d="M339.905,200.096c-8.929-4.762-19.049-3.572-27.383,1.786l-121.437,86.912V552.5l121.437,86.912
	c4.763,2.977,10.12,4.762,15.479,4.762c4.166,0,8.334-1.189,11.904-2.977c8.931-4.762,14.287-13.691,14.287-23.217v-394.67
	C354.192,213.788,348.239,204.858,339.905,200.096z"/>
</svg>
