<?xml version="1.0" encoding="utf-8"?>
<!-- Generator: Adobe Illustrator 16.0.3, SVG Export Plug-In . SVG Version: 6.00 Build 0)  -->
<!DOCTYPE svg PUBLIC "-//W3C//DTD SVG 1.1//EN" "http://www.w3.org/Graphics/SVG/1.1/DTD/svg11.dtd">
<svg version="1.1" id="Layer_1" xmlns="http://www.w3.org/2000/svg" xmlns:xlink="http://www.w3.org/1999/xlink" x="0px" y="0px"
	 width="565.516px" height="447.063px" viewBox="14.882 197.113 565.516 447.063"
	 enable-background="new 14.882 197.113 565.516 447.063" xml:space="preserve">
<path fill="#FFFFFF" d="M14.882,330.462v180.965c0,14.287,11.905,26.193,26.192,26.193H138.7V304.27H41.074
	C26.787,304.27,14.882,316.176,14.882,330.462z"/>
<path fill="#FFFFFF" d="M339.905,200.096c-8.929-4.762-19.049-3.572-27.383,1.786l-121.437,86.911v263.708l121.437,86.912
	c4.763,2.977,10.12,4.762,15.478,4.762c4.167,0,8.334-1.191,11.905-2.977c8.93-4.762,14.287-13.691,14.287-23.217v-394.67
	C354.192,213.788,348.239,204.858,339.905,200.096z"/>
<path fill="#EB3A3A" d="M528.609,421.945l44.646-44.646c9.524-9.524,9.524-25.001,0-34.526s-25.002-9.524-34.526,0l-44.646,44.646
	l-44.646-44.646c-9.524-9.524-25.002-9.524-34.526,0s-9.524,25.001,0,34.526l44.646,44.646l-44.646,44.646
	c-9.524,9.523-9.524,25.002,0,34.525c4.762,4.764,10.715,7.145,17.263,7.145c5.953,0,12.501-2.381,17.264-7.145l44.646-44.645
	l44.646,44.645c4.762,4.764,10.715,7.145,17.263,7.145s12.501-2.381,17.264-7.145c9.524-9.523,9.524-25.002,0-34.525
	L528.609,421.945z"/>
</svg>
