<svg height='100px' width='100px'  fill="#FFFFFF" xmlns="http://www.w3.org/2000/svg" xmlns:xlink="http://www.w3.org/1999/xlink" xml:space="preserve" version="1.1" style="shape-rendering:geometricPrecision;text-rendering:geometricPrecision;image-rendering:optimizeQuality;" viewBox="0 0 0.586 0.442" x="0px" y="0px" fill-rule="evenodd" clip-rule="evenodd"><defs><style type="text/css">
   
    .fil0 {fill:#FFFFFF;fill-rule:nonzero}
   
  </style></defs><g><path class="fil0" d="M0.023 0.097l0.128 0 0.152 -0.094c0.015,-0.009 0.035,0.002 0.035,0.019l0 0.397c0,0.019 -0.022,0.029 -0.036,0.018l-0.151 -0.092 -0.128 0c-0.013,0 -0.023,-0.01 -0.023,-0.023l0 -0.202c0,-0.013 0.01,-0.023 0.023,-0.023zm0.45 0.056c0,-0.012 0.01,-0.022 0.022,-0.022 0.013,0 0.023,0.01 0.023,0.022l0 0.045 0.045 0c0.012,0 0.023,0.01 0.023,0.023 0,0.012 -0.011,0.022 -0.023,0.022l-0.045 0 0 0.045c0,0.013 -0.01,0.023 -0.023,0.023 -0.012,0 -0.022,-0.01 -0.022,-0.023l0 -0.045 -0.045 0c-0.013,0 -0.023,-0.01 -0.023,-0.022 0,-0.013 0.01,-0.023 0.023,-0.023l0.045 0 0 -0.045zm-0.315 -0.011l-0.113 0 0 0.158 0.113 0c0.004,0 0.009,0.001 0.011,0.003l0.124 0.076 0 -0.316 -0.122 0.075c-0.004,0.002 -0.008,0.004 -0.013,0.004z"></path></g></svg>