<?xml version="1.0" encoding="utf-8"?>
<!-- Generator: Adobe Illustrator 16.0.3, SVG Export Plug-In . SVG Version: 6.00 Build 0)  -->
<!DOCTYPE svg PUBLIC "-//W3C//DTD SVG 1.1//EN" "http://www.w3.org/Graphics/SVG/1.1/DTD/svg11.dtd">
<svg version="1.1" id="Layer_1" xmlns="http://www.w3.org/2000/svg" xmlns:xlink="http://www.w3.org/1999/xlink" x="0px" y="0px"
	 width="100px" height="100px" viewBox="0 0 100 100" enable-background="new 0 0 100 100" xml:space="preserve">
<g>
	<path fill="#FFFFFF" d="M3.925,28.84h21.843l25.939-16.041c2.559-1.536,5.973,0.341,5.973,3.242v67.748
		c0,3.242-3.755,4.948-6.145,3.07L25.768,71.16H3.925C1.707,71.16,0,69.454,0,67.235V32.765C0,30.546,1.707,28.84,3.925,28.84z"/>
	<path fill="#F90000" d="M93.345,35.666c1.536-1.365,3.925-1.365,5.461,0c1.536,1.536,1.536,3.925,0,5.461L89.932,50l8.874,8.703
		c1.536,1.535,1.536,4.096,0,5.461c-1.536,1.535-3.925,1.535-5.461,0l-8.874-8.703l-8.703,8.703c-1.535,1.535-3.925,1.535-5.461,0
		c-1.535-1.365-1.535-3.926,0-5.461L79.181,50l-8.874-8.874c-1.535-1.536-1.535-3.925,0-5.461c1.536-1.365,3.926-1.365,5.461,0
		l8.703,8.874L93.345,35.666z"/>
	<path fill="#FFFFFF" d="M26.962,36.519H7.679v26.963h19.283c0.683,0,1.536,0.171,1.877,0.512L50,76.963V23.038L29.181,35.836
		C28.498,36.178,27.816,36.519,26.962,36.519z"/>
</g>
</svg>
