<?xml version="1.0" encoding="utf-8"?>
<!-- Generator: Adobe Illustrator 16.0.3, SVG Export Plug-In . SVG Version: 6.00 Build 0)  -->
<!DOCTYPE svg PUBLIC "-//W3C//DTD SVG 1.1//EN" "http://www.w3.org/Graphics/SVG/1.1/DTD/svg11.dtd">
<svg version="1.1" id="_圖層_1" xmlns="http://www.w3.org/2000/svg" xmlns:xlink="http://www.w3.org/1999/xlink" x="0px" y="0px"
	  viewBox="26.787 198.132 546.686 382.151"
	 enable-background="new 26.787 198.132 546.686 382.151" xml:space="preserve" fill="#fff">
<polygon points="303.99,518.472 301.47,515.535 298.275,513.253 294.565,511.804 290.596,511.308 286.627,511.804 282.917,513.253
	279.722,515.535 277.202,518.472 275.476,521.865 274.622,525.476 274.622,529.207 275.476,532.837 277.202,536.21 279.722,539.148
	282.917,541.429 286.627,542.878 290.596,543.355 294.565,542.878 298.275,541.429 301.47,539.148 303.99,536.21 305.716,532.837
	306.569,529.207 306.569,525.476 305.716,521.845 "/>
<g>
	<path d="M171.083,216.347l1.647,0.317l1.687,0.556l1.646,0.774l1.548,0.992l1.409,1.171l1.27,1.369l1.131,1.528l0.953,1.647
		l0.853,1.865l0.814,2.242l0.754,2.718l0.675,3.294l0.575,3.889l0.456,4.504l0.317,5.119l0.219,5.715l0.317,13.592l2.896,123.263
		l0.517,24.228l0.099,5.278l0.179,5.655l0.357,5.08l0.654,4.504l0.913,3.891l1.19,3.293l1.39,2.758l1.587,2.342l1.905,2.143
		l2.381,2.143l2.937,2.184l3.492,2.203l4.028,2.262l4.584,2.361l5.179,2.52l5.894,2.719l6.706,2.896l7.045,2.799l6.746,2.42
		l6.409,2.045l6.211,1.725l6.071,1.41l5.993,1.092l5.933,0.793l5.933,0.477l5.913,0.158l5.934-0.158l5.933-0.477l5.933-0.773
		l5.993-1.092l6.071-1.389l6.191-1.707l6.409-2.043l6.706-2.402l7.024-2.777l6.747-2.896l5.933-2.738l5.199-2.541l4.604-2.381
		l4.048-2.262l3.492-2.203l2.977-2.182l2.4-2.143l1.925-2.145l1.607-2.34l1.409-2.74l1.19-3.273l0.933-3.869l0.654-4.465
		l0.377-5.059l0.179-5.636l0.417-20.854l0.655-28.415l0.952-38.653l1.646-72.228l0.159-6.409l0.218-5.734l0.318-5.119l0.456-4.504
		l0.575-3.889l0.675-3.294l0.754-2.719l0.813-2.242l0.854-1.865l0.952-1.646l1.131-1.528l1.29-1.369l1.409-1.17l1.527-0.992
		l1.647-0.774l1.687-0.556l1.667-0.317l1.527-0.099l0,0h-17.858l0,0l0,0l-0.04,0.06l-0.218,0.397l-0.516,0.992l-0.813,1.766
		l-1.032,2.738l-1.111,3.85l-1.031,4.822l-0.834,5.556l-0.595,6.33l-0.377,7.163l-0.06,2.46l-12.045,0.139
		c4.802,9.286,7.401,19.267,7.401,29.665s-2.6,20.398-7.401,29.665l10.715,0.139l-0.039,1.885l-1.568,66.135l-0.873,41.511
		l-0.079,2.817l-0.139,2.818l-0.198,2.578l-0.298,2.561l-0.417,2.4l-0.575,2.381L380.9,439.3l-1.071,2.143l-1.429,1.984
		l-1.727,1.707l-1.984,1.627l-2.103,1.467l-2.322,1.449l-2.381,1.369l-2.659,1.449l-2.679,1.389l-19.941,9.227l-18.672,6.707
		l-17.402,4.027l-15.834,1.25l-7.858-0.316l-7.738-0.914l-6.905-1.27l-6.806-1.666l-6.092-1.787l-6.052-2.023l-5.358-1.984
		l-5.317-2.123l-4.723-2.004l-4.663-2.104l-4.206-1.984l-4.167-2.043l-3.751-1.926l-3.71-2.004l-3.274-1.924l-3.155-2.123
		l-2.658-2.203l-2.302-2.658l-1.528-2.898l-1.012-3.135l-0.635-3.115l-0.397-3.174l-0.258-3.314l-0.139-3.314l-0.079-3.611
		l-0.219-11.528l-2.183-94.868v-1.151l12.401-0.139c-4.94-9.287-7.6-19.267-7.6-29.665c0-10.397,2.659-20.398,7.6-29.665
		l-13.771-0.159v-0.576l-0.238-5.377l-0.298-4.782l-0.396-4.247l-0.477-3.69l-0.516-3.135l-0.516-2.6l-0.517-2.163l-0.516-1.865
		l-0.496-1.607l-0.516-1.429l-0.496-1.29l-0.496-1.111l-0.437-0.913l-0.357-0.675l-0.238-0.437l-0.139-0.218l-0.04-0.06l0,0h-17.858
		l0,0l0.457,0.06l1.071,0.06L171.083,216.347z"/>
	<path d="M417.331,217.458h-1.409l-2.044,0.099l-2.48,0.575l-2.698,1.27l-2.679,2.163l-2.381,3.254l-1.826,4.464l-1.29,5.457
		l-0.813,6.211l-0.496,6.965l-0.277,7.719l-1.35,61.115l-1.031,43.694l-0.834,36.372l-0.416,20.755l-0.219,8.512l-0.635,7.561
		l-1.409,6.865l-2.54,6.211l-3.908,5.398l-5.259,4.543l-6.35,4.088l-7.421,3.969l-8.553,4.188l-9.663,4.324l-10.576,4.207
		l-11.271,3.811l-11.786,3.074l-12.264,2.045l-12.619,0.734l-12.62-0.695l-12.303-2.004l-11.945-3.076l-11.449-3.85l-10.715-4.266
		l-9.782-4.385l-8.632-4.246l-7.421-4.008l-6.29-4.088l-5.219-4.604l-3.83-5.418l-2.44-6.17l-1.389-6.846l-0.615-7.641l-0.218-8.651
		l-0.417-20.954l-0.437-19.188l-1.469-61.532l-0.933-43.396l-0.396-17.184l-0.278-7.56l-0.516-6.885l-0.854-6.151l-1.27-5.219
		l-1.647-4.048l-1.944-2.837l-2.044-1.964l-2.043-1.31l-2.005-0.833l-1.885-0.457l-1.687-0.159h-1.409h-0.972h-0.377l1.904,149.436
		v1.29l0.417,36.491l0.198,18.513l0.536,10.338l1.825,9.465l0.1,0.219l0.139,0.277l3.77,7.818l6.409,6.727l7.778,5.795l7.858,5.338
		l0,0l0.317,0.217l31.173,20.182h129.592l11.47-7.283l10.259-6.666l9.206-6.092l8.453-5.734l7.759-5.795l6.409-6.727l4.008-8.314
		l1.846-9.465l0.536-10.338l0.356-35.776l0.576-44.25l1.567-125.703h-0.536L417.331,217.458z M234.6,484.937l-0.675,0.219
		l-1.031-0.08l-1.369-0.396l-1.607-0.693l-1.767-0.992l-1.865-1.311l-1.428-1.309l-0.755-1.072l-0.079-0.715l0.516-0.396
		l1.032-0.039l1.429,0.316l1.786,0.676l1.944,1.012l1.746,1.17l1.35,1.211l0.793,1.053l0.238,0.793l-0.238,0.516L234.6,484.937z
		 M357.088,479.322l-0.754,1.072l-1.429,1.309l-1.885,1.311l-1.766,0.992l-1.607,0.693l-1.35,0.398l-1.052,0.078l-0.675-0.217
		l-0.258-0.518l0.238-0.793l0.794-1.051l1.35-1.23l1.746-1.172l1.944-1.012l1.766-0.674l1.448-0.318l1.032,0.039l0.536,0.379
		l-0.06,0.713H357.088z"/>
</g>
<path d="M291.509,240.178c-23.216,0-42.047,18.831-42.047,42.047c0,23.216,18.831,42.046,42.047,42.046s42.046-18.831,42.046-42.046
	C333.555,259.009,314.725,240.178,291.509,240.178z"/>
<path d="M26.787,495.574v78.814h41.233v5.895h47.126v-5.895H243.47v2.361l0.158,0.158l2.897,2.898h88.121l2.917-2.918l0.158-0.158
	v-2.361h139.613v5.893h49.567v-5.893h46.57v-78.814H26.787V495.574z M276.468,502.757h28.275c9.307,0,17.898,4.959,22.541,13.016
	c4.663,8.057,4.663,17.979,0,26.033c-4.663,8.057-13.255,13.018-22.541,13.018h-28.275c-9.644,0-18.057-5.238-22.541-13.018
	c-2.223-3.828-3.492-8.273-3.492-13.016C250.435,514.404,262.082,502.757,276.468,502.757z"/>
<path d="M291.489,198.132c-46.451,0-84.112,37.661-84.112,84.113s37.661,84.113,84.112,84.113c46.452,0,84.113-37.662,84.113-84.113
	S337.941,198.132,291.489,198.132z M291.489,344.849c-34.585,0-62.623-28.038-62.623-62.624c0-34.586,28.038-62.624,62.623-62.624
	c34.586,0,62.624,28.038,62.624,62.624C354.113,316.811,326.074,344.849,291.489,344.849z"/>
</svg>
