<svg height='100px' width='100px'  fill="#FFFFFF" xmlns:x="http://ns.adobe.com/Extensibility/1.0/" xmlns:i="http://ns.adobe.com/AdobeIllustrator/10.0/" xmlns:graph="http://ns.adobe.com/Graphs/1.0/" xmlns="http://www.w3.org/2000/svg" xmlns:xlink="http://www.w3.org/1999/xlink" version="1.1" x="0px" y="0px" viewBox="-949 951 100 100" style="enable-background:new -949 951 100 100;" xml:space="preserve"><g><g i:extraneous="self"><g><path d="M-893.7,960.4c-2.6-1.2-5.6-0.9-7.9,1l-23.6,19.3l-12.4,1.2c-5.1,0.5-9,4.7-9,9.9v18.6c0,5.1,3.9,9.4,9,9.9l12.4,1.2     l23.6,19.3c1.4,1.1,3,1.7,4.7,1.7c1.1,0,2.2-0.2,3.2-0.7c2.6-1.2,4.2-3.8,4.2-6.7v-67.7C-889.4,964.2-891.1,961.7-893.7,960.4z      M-898.1,1032.2l-23.5-19.3l-15.1-1.4c-0.6-0.1-1.1-0.6-1.1-1.2v-18.6c0-0.6,0.5-1.2,1.1-1.2l15.1-1.4l23.5-19.3V1032.2z"></path><path d="M-873.4,978.5c-0.7-0.9-2-1-2.8-0.2l-3.3,3c-0.7,0.7-0.8,1.8-0.2,2.6c3.7,4.7,6,10.6,6,17.1c0,6.5-2.2,12.4-6,17.1     c-0.6,0.8-0.5,1.9,0.2,2.6l3.3,3c0.8,0.7,2.1,0.6,2.8-0.2c5-6.1,7.9-14,7.9-22.5C-865.4,992.5-868.4,984.7-873.4,978.5z"></path><path d="M-863.1,969.1c-0.7-0.8-1.9-0.9-2.7-0.2l-3.4,3c-0.8,0.7-0.8,1.8-0.2,2.6c5.9,7.2,9.5,16.4,9.5,26.4     c0,10-3.6,19.2-9.5,26.4c-0.7,0.8-0.6,2,0.2,2.6l3.4,3c0.8,0.7,2,0.7,2.7-0.2c7.3-8.6,11.6-19.8,11.6-31.9     C-851.5,988.9-855.9,977.7-863.1,969.1z"></path></g></g></g></svg>