<svg height='100px' width='100px'  fill="#FFFFFF" xmlns:x="http://ns.adobe.com/Extensibility/1.0/" xmlns:i="http://ns.adobe.com/AdobeIllustrator/10.0/" xmlns:graph="http://ns.adobe.com/Graphs/1.0/" xmlns="http://www.w3.org/2000/svg" xmlns:xlink="http://www.w3.org/1999/xlink" version="1.1" x="0px" y="0px" viewBox="-949 951 100 100" style="enable-background:new -949 951 100 100;" xml:space="preserve"><g><g i:extraneous="self"><g><path d="M-900.1,962.3l-26.3,21.5l-14.7,1.4c-3.1,0.3-5.4,2.9-5.4,5.9v19.9c0,3.1,2.3,5.6,5.4,5.9l14.7,1.4l26.3,21.5     c2.1,1.8,5.4,0.2,5.4-2.5v-72.4C-894.8,962-898,960.5-900.1,962.3z"></path><path d="M-851.5,997.7c0-0.7-0.6-1.3-1.3-1.3l-11.3,0l0-11.3c0-0.7-0.6-1.3-1.3-1.3l-6.6,0c-0.7,0-1.3,0.6-1.3,1.3l0,11.3     l-11.3,0c-0.7,0-1.3,0.6-1.3,1.3l0,6.6c0,0.7,0.6,1.3,1.3,1.3h11.3l0,11.3c0,0.7,0.6,1.3,1.3,1.3l6.6,0c0.7,0,1.3-0.6,1.3-1.3     l0-11.3l11.3,0c0.7,0,1.3-0.6,1.3-1.3L-851.5,997.7z"></path></g></g></g></svg>