<?xml version="1.0" encoding="UTF-8"?>
<svg version="1.1" viewBox="0 0 1200 1200" xmlns="http://www.w3.org/2000/svg" fill="#fff">
 <path d="m937.5 131.25h-675c-34.809 0-68.195 13.828-92.809 38.441-24.613 24.613-38.441 58-38.441 92.809v675c0 34.809 13.828 68.195 38.441 92.809 24.613 24.613 58 38.441 92.809 38.441h675c34.809 0 68.195-13.828 92.809-38.441 24.613-24.613 38.441-58 38.441-92.809v-675c0-34.809-13.828-68.195-38.441-92.809-24.613-24.613-58-38.441-92.809-38.441zm93.75 806.25c0 24.863-9.8789 48.711-27.457 66.293-17.582 17.578-41.43 27.457-66.293 27.457h-675c-24.863 0-48.711-9.8789-66.293-27.457-17.578-17.582-27.457-41.43-27.457-66.293v-675c0-24.863 9.8789-48.711 27.457-66.293 17.582-17.578 41.43-27.457 66.293-27.457h675c24.863 0 48.711 9.8789 66.293 27.457 17.578 17.582 27.457 41.43 27.457 66.293z"/>
 <path d="m318.75 509.62v-209.62c0-6.6992-3.5742-12.887-9.375-16.238-5.8008-3.3477-12.949-3.3477-18.75 0-5.8008 3.3516-9.375 9.5391-9.375 16.238v209.62c-10.941 3.8672-20.418 11.027-27.133 20.492-6.7148 9.4648-10.336 20.777-10.367 32.383v75c0.03125 11.605 3.6523 22.918 10.367 32.383 6.7148 9.4648 16.191 16.625 27.133 20.492v209.62c0 6.6992 3.5742 12.887 9.375 16.238 5.8008 3.3477 12.949 3.3477 18.75 0 5.8008-3.3516 9.375-9.5391 9.375-16.238v-209.62c10.941-3.8672 20.418-11.027 27.133-20.492 6.7148-9.4648 10.336-20.777 10.367-32.383v-75c-0.03125-11.605-3.6523-22.918-10.367-32.383-6.7148-9.4648-16.191-16.625-27.133-20.492zm0 127.88c0 6.6992-3.5742 12.887-9.375 16.238-5.8008 3.3477-12.949 3.3477-18.75 0-5.8008-3.3516-9.375-9.5391-9.375-16.238v-75c0-6.6992 3.5742-12.887 9.375-16.238 5.8008-3.3477 12.949-3.3477 18.75 0 5.8008 3.3516 9.375 9.5391 9.375 16.238z"/>
 <path d="m518.62 359.62v-59.625c0-6.6992-3.5742-12.887-9.375-16.238-5.8008-3.3477-12.949-3.3477-18.75 0-5.8008 3.3516-9.375 9.5391-9.375 16.238v59.625c-10.941 3.8672-20.418 11.027-27.133 20.492-6.7148 9.4648-10.336 20.777-10.367 32.383v75c0.03125 11.605 3.6523 22.918 10.367 32.383 6.7148 9.4648 16.191 16.625 27.133 20.492v359.62c0 6.6992 3.5742 12.887 9.375 16.238 5.8008 3.3477 12.949 3.3477 18.75 0 5.8008-3.3516 9.375-9.5391 9.375-16.238v-359.62c10.941-3.8672 20.418-11.027 27.133-20.492 6.7148-9.4648 10.336-20.777 10.367-32.383v-75c-0.03125-11.605-3.6523-22.918-10.367-32.383-6.7148-9.4648-16.191-16.625-27.133-20.492zm0 127.88c0 6.6992-3.5742 12.887-9.375 16.238-5.8008 3.3477-12.949 3.3477-18.75 0-5.8008-3.3516-9.375-9.5391-9.375-16.238v-75c0-6.6992 3.5742-12.887 9.375-16.238 5.8008-3.3477 12.949-3.3477 18.75 0 5.8008 3.3516 9.375 9.5391 9.375 16.238z"/>
 <path d="m718.88 659.62v-359.62c0-6.6992-3.5742-12.887-9.375-16.238-5.8008-3.3477-12.949-3.3477-18.75 0-5.8008 3.3516-9.375 9.5391-9.375 16.238v359.62c-10.941 3.8672-20.418 11.027-27.133 20.492-6.7148 9.4648-10.336 20.777-10.367 32.383v75c0.03125 11.605 3.6523 22.918 10.367 32.383 6.7148 9.4648 16.191 16.625 27.133 20.492v59.625c0 6.6992 3.5742 12.887 9.375 16.238 5.8008 3.3477 12.949 3.3477 18.75 0 5.8008-3.3516 9.375-9.5391 9.375-16.238v-59.625c10.941-3.8672 20.418-11.027 27.133-20.492 6.7148-9.4648 10.336-20.777 10.367-32.383v-75c-0.03125-11.605-3.6523-22.918-10.367-32.383-6.7148-9.4648-16.191-16.625-27.133-20.492zm0 127.88c0 6.6992-3.5742 12.887-9.375 16.238-5.8008 3.3477-12.949 3.3477-18.75 0-5.8008-3.3516-9.375-9.5391-9.375-16.238v-75c0-6.6992 3.5742-12.887 9.375-16.238 5.8008-3.3477 12.949-3.3477 18.75 0 5.8008 3.3516 9.375 9.5391 9.375 16.238z"/>
 <path d="m918.75 509.62v-209.62c0-6.6992-3.5742-12.887-9.375-16.238-5.8008-3.3477-12.949-3.3477-18.75 0-5.8008 3.3516-9.375 9.5391-9.375 16.238v209.62c-10.941 3.8672-20.418 11.027-27.133 20.492-6.7148 9.4648-10.336 20.777-10.367 32.383v75c0.03125 11.605 3.6523 22.918 10.367 32.383 6.7148 9.4648 16.191 16.625 27.133 20.492v209.62c0 6.6992 3.5742 12.887 9.375 16.238 5.8008 3.3477 12.949 3.3477 18.75 0 5.8008-3.3516 9.375-9.5391 9.375-16.238v-209.62c10.941-3.8672 20.418-11.027 27.133-20.492 6.7148-9.4648 10.336-20.777 10.367-32.383v-75c-0.03125-11.605-3.6523-22.918-10.367-32.383-6.7148-9.4648-16.191-16.625-27.133-20.492zm0 127.88c0 6.6992-3.5742 12.887-9.375 16.238-5.8008 3.3477-12.949 3.3477-18.75 0-5.8008-3.3516-9.375-9.5391-9.375-16.238v-75c0-4.9727 1.9766-9.7422 5.4922-13.258 3.5156-3.5156 8.2852-5.4922 13.258-5.4922s9.7422 1.9766 13.258 5.4922c3.5156 3.5156 5.4922 8.2852 5.4922 13.258z"/>
</svg>
