<?xml version="1.0" encoding="UTF-8"?>
<svg  version="1.1" viewBox="0 0 1200 1200" xmlns="http://www.w3.org/2000/svg">
 <path d="m600 859.39c63.977-0.089844 125.31-25.543 170.55-70.781 45.238-45.242 70.695-106.57 70.781-170.55v-361.18c0-64.023-25.434-125.42-70.703-170.7-45.27-45.27-106.67-70.703-170.7-70.703-64.023 0-125.43 25.434-170.7 70.703-45.273 45.273-70.703 106.67-70.703 170.7v361.12c0.074219 64.012 25.539 125.38 70.809 170.63 45.27 45.254 106.64 70.699 170.66 70.754zm-168.33-602.51c0-44.645 17.734-87.461 49.301-119.03 31.57-31.57 74.387-49.305 119.03-49.305s87.461 17.734 119.03 49.305c31.566 31.566 49.301 74.383 49.301 119.03v361.12c0 44.645-17.734 87.461-49.301 119.03-31.57 31.566-74.387 49.301-119.03 49.301s-87.461-17.734-119.03-49.301c-31.566-31.57-49.301-74.387-49.301-119.03zm448 644.72v0.003906c-65.07 65.566-151.15 106.13-243.13 114.57v131.83c0 13.051-6.9648 25.113-18.27 31.641-11.301 6.5234-25.23 6.5234-36.531 0-11.305-6.5273-18.27-18.59-18.27-31.641v-131.83c-98.148-9.375-189.3-54.926-255.72-127.79-66.422-72.863-103.37-167.83-103.65-266.42 0-13.055 6.9609-25.113 18.266-31.641 11.305-6.5234 25.23-6.5234 36.535 0 11.301 6.5273 18.266 18.586 18.266 31.641 0 85.621 34.012 167.74 94.559 228.28 60.543 60.543 142.66 94.559 228.28 94.559s167.74-34.016 228.28-94.559c60.547-60.543 94.559-142.66 94.559-228.28 0-13.055 6.9648-25.113 18.266-31.641 11.305-6.5234 25.23-6.5234 36.535 0 11.305 6.5273 18.266 18.586 18.266 31.641 0.070312 51.984-10.168 103.46-30.125 151.46s-49.234 91.566-86.141 128.18z" fill="#ffffff"/>
</svg>
