<?xml version="1.0" encoding="UTF-8"?>
<svg version="1.1" viewBox="0 0 1200 1200" xmlns="http://www.w3.org/2000/svg">
 <path d="m633.73 859.39c63.988-0.070313 125.34-25.516 170.59-70.758 45.254-45.242 70.719-106.59 70.805-170.57v-332l164-164c7.0234-6.8125 11.023-16.16 11.098-25.945s-3.7773-19.191-10.695-26.109c-6.918-6.9219-16.324-10.777-26.109-10.703-9.7852 0.070313-19.133 4.0664-25.945 11.09l-121.25 121.25c-15.742-56.164-51.293-104.73-100.07-136.71s-107.48-45.223-165.27-37.273c-57.785 7.9492-110.74 36.551-149.07 80.52-38.328 43.969-59.441 100.32-59.434 158.66v361.17c0.015625 14.617 1.3516 29.199 4 43.574l-67.215 67.215v-0.003906c-12.062-34.32-18.211-70.445-18.184-106.82 0-13.055-6.9648-25.113-18.27-31.641-11.301-6.5234-25.23-6.5234-36.531 0-11.305 6.5273-18.266 18.586-18.266 31.641-0.085937 56.203 11.906 111.77 35.156 162.93l-112.08 112.08c-8.9961 9.2734-12.43 22.609-9.0234 35.07 3.4062 12.465 13.141 22.203 25.602 25.609 12.465 3.4102 25.801-0.015625 35.074-9.0117l98.215-98.215c13 18.227 27.488 35.344 43.32 51.176 65.039 65.539 151.07 106.1 243.01 114.57v131.83c0 13.051 6.9648 25.113 18.266 31.641 11.305 6.5234 25.23 6.5234 36.535 0 11.305-6.5273 18.266-18.59 18.266-31.641v-131.83c98.148-9.375 189.3-54.926 255.72-127.79 66.426-72.863 103.37-167.83 103.65-266.42 0.1875-9.8086-3.5781-19.281-10.449-26.285-6.8711-7-16.27-10.945-26.078-10.945-9.8086 0-19.207 3.9453-26.078 10.945-6.8711 7.0039-10.637 16.477-10.449 26.285 0.007812 69.59-22.477 137.32-64.098 193.09-41.625 55.77-100.16 96.59-166.88 116.38-66.715 19.793-138.04 17.488-203.34-6.5625-65.301-24.051-121.08-68.566-159.02-126.9l60.746-60.629c21.082 37.039 51.59 67.84 88.426 89.277 36.836 21.438 78.688 32.746 121.31 32.777zm168.33-241.33c-0.011718 38.898-13.5 76.598-38.164 106.68-24.668 30.082-58.992 50.688-97.141 58.32-38.145 7.6289-77.754 1.8125-112.09-16.465-34.344-18.277-61.293-47.883-76.27-83.785l323.67-323.67zm-336.65-361.18c0.23438-44.395 17.996-86.902 49.426-118.26 31.43-31.363 73.973-49.035 118.37-49.172 44.398-0.13672 87.051 17.273 118.67 48.438 31.621 31.164 49.648 73.562 50.156 117.96l-336.62 336.62z" fill="#ffffff"/>
</svg>
