<?xml version="1.0" encoding="UTF-8"?>
<svg width="1200pt" height="1200pt" version="1.1" viewBox="0 0 1200 1200" xmlns="http://www.w3.org/2000/svg">
 <path d="m710.63 245.63c-9.375 3.75-13.125 15-9.375 24.375 7.5 15 11.25 31.875 11.25 48.75 0 61.875-50.625 112.5-112.5 112.5s-112.5-50.625-112.5-112.5 50.625-112.5 112.5-112.5c18.75 0 35.625 3.75 52.5 13.125 9.375 5.625 20.625 1.875 24.375-7.5 5.625-9.375 1.875-20.625-7.5-24.375-15-7.5-33.75-13.125-50.625-15v-97.5c0-11.25-7.5-18.75-18.75-18.75s-18.75 7.5-18.75 18.75v95.625c-73.125 9.375-131.26 73.125-131.26 148.13 0 75.004 58.125 138.74 131.26 148.13v658.13c0 11.25 7.5 18.75 18.75 18.75s18.75-7.5 18.75-18.75v-658.13c73.125-9.375 131.26-73.125 131.26-148.13 0-22.5-5.625-45-15-65.625-3.75-9.375-15-13.125-24.375-7.5z"/>
 <path d="m675 318.74c0 41.438-33.562 75-75 75s-75-33.562-75-75 33.562-75 75-75 75 33.562 75 75"/>
 <path d="m1012.5 733.13v-658.13c0-11.25-7.5-18.75-18.75-18.75s-18.75 7.5-18.75 18.75v658.13c-73.125 9.375-131.26 73.125-131.26 148.13 0 75.004 58.125 138.74 131.26 148.13v95.625c0 11.25 7.5 18.75 18.75 18.75s18.75-7.5 18.75-18.75v-95.625c16.875-1.875 35.625-7.5 50.625-15 9.375-5.625 13.125-16.875 7.5-24.375-5.625-9.375-16.875-13.125-24.375-7.5-16.875 7.5-33.75 11.25-52.5 11.25-61.875 0-112.5-50.625-112.5-112.5s50.625-112.5 112.5-112.5 112.5 50.625 112.5 112.5c0 16.875-3.75 33.75-11.25 48.75-3.75 9.375 0 20.625 9.375 24.375s20.625 0 24.375-9.375c9.375-20.625 15-43.125 15-65.625 0-75-58.125-136.87-131.26-146.26z"/>
 <path d="m1068.7 881.26c0 41.438-33.562 75-75 75s-75-33.562-75-75 33.562-75 75-75 75 33.562 75 75"/>
 <path d="m225 733.13v-658.13c0-11.25-7.5-18.75-18.75-18.75s-18.75 7.5-18.75 18.75v658.13c-73.125 9.375-131.26 73.125-131.26 148.13 0 75.004 58.125 138.74 131.26 148.13v95.625c0 11.25 7.5 18.75 18.75 18.75s18.75-7.5 18.75-18.75v-95.625c16.875-1.875 35.625-7.5 50.625-15 9.375-5.625 13.125-16.875 7.5-24.375-5.625-9.375-16.875-13.125-24.375-7.5-16.875 7.5-33.75 11.25-52.5 11.25-61.875 0-112.5-50.625-112.5-112.5s50.625-112.5 112.5-112.5 112.5 50.625 112.5 112.5c0 16.875-3.75 33.75-11.25 48.75-3.75 9.375 0 20.625 9.375 24.375s20.625 0 24.375-9.375c9.375-20.625 15-43.125 15-65.625 0-75-58.125-136.87-131.26-146.26z"/>
 <path d="m281.26 881.26c0 41.438-33.562 75-75 75s-75-33.562-75-75 33.562-75 75-75 75 33.562 75 75"/>
</svg>
