<?xml version="1.0" encoding="UTF-8"?>
<svg width="1200pt" height="1200pt" version="1.1" viewBox="0 0 1200 1200" xmlns="http://www.w3.org/2000/svg">
 <path d="m86.438 704.89h96.262v270.62h-96.262z"/>
 <path d="m272.53 405.49h96.242v570.02h-96.242z"/>
 <path d="m458.62 519.28h96.242v456.24h-96.242z"/>
 <path d="m644.72 288.64h96.262v686.87h-96.262z"/>
 <path d="m830.81 374.74h96.262v600.77h-96.262z"/>
 <path d="m1017.3 592.67h96.262v382.84h-96.262z"/>
 <path d="m86.438 634.59h96.262v43.199h-96.262z"/>
 <path d="m272.53 337.86h96.242v43.199h-96.242z"/>
 <path d="m458.62 451.67h96.242v43.199h-96.242z"/>
 <path d="m644.72 224.49h96.262v43.199h-96.262z"/>
 <path d="m830.81 307.09h96.262v43.199h-96.262z"/>
 <path d="m1017.3 522.36h96.262v43.199h-96.262z"/>
</svg>
