<?xml version="1.0" encoding="UTF-8"?>
<svg width="1200pt" height="1200pt" version="1.1" viewBox="0 0 1200 1200" xmlns="http://www.w3.org/2000/svg" fill="#fff">
 <path d="m243.74 657.61c0-10.223-8.2812-18.492-18.504-18.504h-69.961c-10.223 0-18.504 8.2695-18.504 18.504 0.011718 10.199 8.293 18.492 18.504 18.504l28.344-0.011719h41.617c10.238 0 18.504-8.293 18.504-18.492z"/>
 <path d="m1004.5 657.61c0 10.211 8.2812 18.492 18.492 18.492h69.973c10.223 0 18.504-8.2812 18.504-18.492-0.011718-10.234-8.293-18.504-18.504-18.504h-41.629l-28.332-0.011719c-10.223 0.011719-18.516 8.2773-18.504 18.516z"/>
 <path d="m922.5 333.06-9.3828 9.3711-20.051 20.051c-7.2227 7.2227-7.2461 18.938-0.011718 26.172 7.2227 7.2227 18.949 7.2109 26.172 0l29.445-29.445 20.039-20.027c7.2344-7.2344 7.2227-18.949 0-26.16-7.2461-7.2344-18.926-7.2344-26.16 0z"/>
 <path d="m355.18 362.5-20.051-20.039-9.3828-9.3945-20.051-20.051c-7.2227-7.2227-18.938-7.2227-26.148-0.011719-7.2344 7.2344-7.2344 18.961 0 26.184l20.039 20.027 9.3828 9.3945 20.039 20.039c7.2344 7.2344 18.949 7.2344 26.184 0 7.1992-7.2109 7.1992-18.938-0.011719-26.148z"/>
 <path d="m605.62 188.76v69.992c0 10.211 8.2695 18.504 18.504 18.492 10.199 0.011718 18.48-8.2812 18.492-18.504l-0.011719-28.332v-13.297l0.011719-28.344c-0.011719-10.223-8.293-18.504-18.492-18.504-10.25 0.015625-18.504 8.293-18.504 18.496z"/>
 <path d="m1046.8 532.15-12.887 3.2539-27.48 6.9102c-9.8984 2.4961-15.926 12.551-13.43 22.453 2.4961 9.8984 12.551 15.926 22.441 13.414l27.492-6.9102 12.887-3.2266 27.492-6.9375c9.9102-2.4844 15.91-12.551 13.414-22.441-2.4844-9.9375-12.539-15.938-22.441-13.453z"/>
 <path d="m848.8 245.71-14.543 24.324-6.8281 11.398-14.531 24.324c-5.2422 8.7734-2.3984 20.125 6.3828 25.379 8.7461 5.2305 20.137 2.375 25.355-6.3828l14.555-24.324 6.8164-11.398 14.531-24.324c5.2578-8.7852 2.375-20.137-6.3711-25.367-8.7852-5.2539-20.113-2.3984-25.367 6.3711z"/>
 <path d="m297.67 462.42c5.2305-8.7734 2.3516-20.125-6.3828-25.367l-24.336-14.543-11.398-6.8164-24.324-14.543c-8.7617-5.2422-20.137-2.375-25.355 6.3711-5.2578 8.7852-2.3867 20.137 6.3828 25.379l24.324 14.531 11.398 6.8281 24.312 14.543c8.7695 5.2539 20.121 2.3867 25.379-6.3828z"/>
 <path d="m501.89 247.82 6.9258 27.504c2.4961 9.8984 12.539 15.926 22.465 13.414 9.8867-2.4961 15.898-12.551 13.402-22.441l-6.9102-27.504-3.2539-12.887-6.9102-27.48c-2.4961-9.9102-12.562-15.91-22.453-13.43-9.9258 2.4961-15.91 12.551-13.43 22.453l6.9375 27.48z"/>
 <path d="m999.89 427.04-11.605 6.4688-24.758 13.789c-8.9141 4.9688-12.145 16.246-7.1758 25.176 4.9922 8.9141 16.246 12.121 25.176 7.1406l24.758-13.789 11.617-6.4688 24.758-13.789c8.9297-4.9688 12.121-16.246 7.1523-25.164-4.9688-8.9414-16.234-12.145-25.164-7.1641z"/>
 <path d="m734.54 201.59-7.7539 27.266-3.6484 12.77-7.7539 27.266c-2.7852 9.8281 2.8906 20.062 12.73 22.859 9.8164 2.7734 20.062-2.9297 22.859-12.742l7.7539-27.254 3.6367-12.781 7.7539-27.254c2.7852-9.8398-2.9023-20.074-12.73-22.848-9.8281-2.8125-20.051 2.8906-22.848 12.719z"/>
 <path d="m258.27 553.56c2.7734-9.8164-2.9297-20.051-12.73-22.848l-27.266-7.7656-12.781-3.6367-27.266-7.7539c-9.8164-2.7969-20.062 2.9141-22.848 12.73-2.7969 9.8516 2.9023 20.062 12.742 22.859l27.266 7.7539 12.758 3.6367 27.266 7.7539c9.8516 2.8008 20.062-2.9023 22.859-12.73z"/>
 <path d="m438.97 325.34c8.9023-4.9688 12.121-16.246 7.1641-25.152l-13.801-24.758-6.4688-11.617-13.789-24.758c-4.9805-8.9141-16.246-12.121-25.164-7.1523-8.9414 4.9922-12.133 16.234-7.1523 25.152l13.789 24.758 6.457 11.605 13.789 24.77c4.9805 8.918 16.234 12.145 25.176 7.1523z"/>
 <path d="m852.71 506.84 20.281-20.258c10.309-10.32 16.02-24.059 16.031-38.652 0.011719-14.641-5.6875-28.391-16.043-38.746-10.332-10.32-24.059-16.008-38.676-16.008-14.629 0-28.367 5.6992-38.699 16.02l-20.258 20.281-7.5117 7.5c-102.09-66.637-240.25-55.188-329.91 34.441-102.8 102.83-102.8 269.54 0 372.38 102.83 102.82 269.55 102.82 372.38 0 89.461-89.473 101.04-227.3 34.801-329.33zm-69.852-33.938 17.965-17.965 20.258-20.27c3.6602-3.6484 8.4258-5.4727 13.234-5.4727 4.7773 0 9.5625 1.8242 13.223 5.4727 7.3086 7.3203 7.2734 19.152 0 26.449l-20.27 20.258-9.4922 9.5039-8.4844 8.4727-11.762 11.797-8.4844 8.4727-9.5039 9.4922-20.258 20.258c-3.6719 3.6484-8.4258 5.4844-13.234 5.4844-4.7773 0-9.5625-1.8242-13.234-5.4844-7.2734-7.2969-7.2852-19.141 0-26.438l20.281-20.27 9.4922-9.5039 8.4844-8.4609zm3.0859 346.54c-89.219 89.242-234.42 89.23-323.66 0-89.219-89.219-89.219-234.42 0-323.65 75.984-75.984 192.48-87.156 280.51-33.758l-5.6641 5.6406-9.5156 9.5508-20.258 20.242c-21.336 21.336-21.348 56.051-0.011718 77.375 10.344 10.355 24.098 16.043 38.699 16.043 14.617 0 28.344-5.6875 38.688-16.02l20.281-20.27 9.4922-9.4688 5.5781-5.5938c52.992 87.934 41.664 204.09-34.137 279.91z"/>
</svg>
