<?xml version="1.0" encoding="UTF-8"?>
<svg version="1.1" viewBox="0 0 1200 1200" xmlns="http://www.w3.org/2000/svg" fill="#fff">
 <path d="m336 888h-48c-13.246 0-24 10.754-24 24s10.754 24 24 24h48c13.246 0 24-10.754 24-24s-10.754-24-24-24z"/>
 <path d="m336 744h-48c-13.246 0-24 10.754-24 24s10.754 24 24 24h48c13.246 0 24-10.754 24-24s-10.754-24-24-24z"/>
 <path d="m336 600h-48c-13.246 0-24 10.754-24 24s10.754 24 24 24h48c13.246 0 24-10.754 24-24s-10.754-24-24-24z"/>
 <path d="m336 456h-48c-13.246 0-24 10.754-24 24s10.754 24 24 24h48c13.246 0 24-10.754 24-24s-10.754-24-24-24z"/>
 <path d="m480 888h-48c-13.246 0-24 10.754-24 24s10.754 24 24 24h48c13.246 0 24-10.754 24-24s-10.754-24-24-24z"/>
 <path d="m480 744h-48c-13.246 0-24 10.754-24 24s10.754 24 24 24h48c13.246 0 24-10.754 24-24s-10.754-24-24-24z"/>
 <path d="m624 888h-48c-13.246 0-24 10.754-24 24s10.754 24 24 24h48c13.246 0 24-10.754 24-24s-10.754-24-24-24z"/>
 <path d="m624 744h-48c-13.246 0-24 10.754-24 24s10.754 24 24 24h48c13.246 0 24-10.754 24-24s-10.754-24-24-24z"/>
 <path d="m624 600h-48c-13.246 0-24 10.754-24 24s10.754 24 24 24h48c13.246 0 24-10.754 24-24s-10.754-24-24-24z"/>
 <path d="m624 456h-48c-13.246 0-24 10.754-24 24s10.754 24 24 24h48c13.246 0 24-10.754 24-24s-10.754-24-24-24z"/>
 <path d="m624 312h-48c-13.246 0-24 10.754-24 24s10.754 24 24 24h48c13.246 0 24-10.754 24-24s-10.754-24-24-24z"/>
 <path d="m768 888h-48c-13.246 0-24 10.754-24 24s10.754 24 24 24h48c13.246 0 24-10.754 24-24s-10.754-24-24-24z"/>
 <path d="m912 888h-48c-13.246 0-24 10.754-24 24s10.754 24 24 24h48c13.246 0 24-10.754 24-24s-10.754-24-24-24z"/>
 <path d="m768 744h-48c-13.246 0-24 10.754-24 24s10.754 24 24 24h48c13.246 0 24-10.754 24-24s-10.754-24-24-24z"/>
 <path d="m768 600h-48c-13.246 0-24 10.754-24 24s10.754 24 24 24h48c13.246 0 24-10.754 24-24s-10.754-24-24-24z"/>
 <path d="m912 744h-48c-13.246 0-24 10.754-24 24s10.754 24 24 24h48c13.246 0 24-10.754 24-24s-10.754-24-24-24z"/>
 <path d="m912 600h-48c-13.246 0-24 10.754-24 24s10.754 24 24 24h48c13.246 0 24-10.754 24-24s-10.754-24-24-24z"/>
 <path d="m912 456h-48c-13.246 0-24 10.754-24 24s10.754 24 24 24h48c13.246 0 24-10.754 24-24s-10.754-24-24-24z"/>
 <path d="m960 120h-720c-66.145 0-120 53.809-120 120v720c0 66.191 53.855 120 120 120h720c66.145 0 120-53.809 120-120v-720c0-66.191-53.855-120-120-120zm72 840c0 39.695-32.305 72-72 72h-720c-39.695 0-72-32.305-72-72v-720c0-39.695 32.305-72 72-72h720c39.695 0 72 32.305 72 72z"/>
</svg>
