<?xml version="1.0" encoding="UTF-8"?>
<svg version="1.1" viewBox="0 0 1200 1200" xmlns="http://www.w3.org/2000/svg">
 <g fill="#ffffff">
  <path d="m179.99 763.92h187.61l251.83 172.44c4.0664 2.7852 8.8047 4.1953 13.559 4.1953 3.832 0 7.6758-0.91406 11.191-2.7695 7.8828-4.1523 12.809-12.324 12.809-21.23v-633.12c0-8.9062-4.9258-17.074-12.809-21.23-7.8867-4.1719-17.41-3.6094-24.75 1.4219l-251.83 172.45h-187.61c-13.254 0-24 10.746-24 24v279.84c0 13.254 10.746 24 24 24zm429 107.12-209.96-143.77-0.003906-254.54 209.96-143.77zm-405-386.96h147.04v231.84h-147.04z"/>
  <path d="m714.88 715.81c4.6875 4.7148 10.848 7.0742 17.012 7.0742 6.1211 0 12.246-2.3281 16.926-6.9883 31.023-30.875 48.109-72.031 48.109-115.89 0-43.793-17.027-84.938-47.949-115.85-9.375-9.3633-24.57-9.3672-33.945 0.007812-9.3672 9.375-9.3672 24.57 0.007812 33.945 21.852 21.84 33.887 50.926 33.887 81.898 0 30.996-12.066 60.07-33.965 81.871-9.3984 9.3477-9.4336 24.547-0.082032 33.938z"/>
  <path d="m870.01 600c0 63.199-24.656 122.73-69.434 167.61-9.3594 9.3867-9.3398 24.578 0.042969 33.945 4.6875 4.6719 10.816 7.0078 16.953 7.0078 6.1523 0 12.305-2.3516 16.992-7.0469 53.809-53.953 83.445-125.52 83.445-201.52s-29.637-147.56-83.449-201.51c-9.3594-9.3828-24.551-9.3984-33.945-0.042969-9.3828 9.3633-9.3984 24.555-0.042969 33.945 44.781 44.883 69.438 104.41 69.438 167.61z"/>
  <path d="m996.01 600c0 97.016-37.77 188.14-106.36 256.61-9.3828 9.3633-9.3906 24.562-0.027344 33.945 4.6875 4.6953 10.832 7.043 16.984 7.043 6.1367 0 12.27-2.3359 16.957-7.0156 77.672-77.535 120.45-180.73 120.45-290.58 0-109.85-42.773-213.04-120.45-290.58-9.3867-9.3594-24.578-9.3516-33.945 0.027343-9.3633 9.3828-9.3516 24.574 0.027344 33.945 68.594 68.469 106.36 159.6 106.36 256.61z"/>
 </g>
</svg>
