<?xml version="1.0" encoding="UTF-8"?>
<svg version="1.1" viewBox="0 0 1200 1200" xmlns="http://www.w3.org/2000/svg">
 <g fill="#ffffff">
  <path d="m209.86 763.92h187.61l251.83 172.44c4.0664 2.7852 8.8008 4.1953 13.559 4.1953 3.832 0 7.6758-0.91406 11.191-2.7695 7.875-4.1484 12.809-12.324 12.809-21.23v-633.12c0-8.9062-4.9336-17.078-12.809-21.23-7.8984-4.1719-17.414-3.6055-24.75 1.4219l-251.83 172.45h-187.61c-13.254 0-24 10.746-24 24v279.84c0 13.254 10.746 24 24 24zm429 107.12-209.95-143.77v-254.54l209.95-143.77zm-405-386.96h147.05v231.84h-147.05z"/>
  <path d="m765.62 706.01c4.6875 4.6875 10.828 7.0312 16.969 7.0312s12.281-2.3438 16.969-7.0312l86.805-86.801 86.805 86.801c4.6875 4.6875 10.828 7.0312 16.969 7.0312s12.281-2.3438 16.969-7.0312c9.375-9.3672 9.375-24.57 0-33.938l-86.805-86.801 86.805-86.801c9.375-9.3672 9.375-24.57 0-33.938-9.375-9.375-24.562-9.375-33.938 0l-86.805 86.801-86.805-86.801c-9.375-9.375-24.562-9.375-33.938 0-9.375 9.3672-9.375 24.57 0 33.938l86.805 86.801-86.805 86.801c-9.375 9.3711-9.375 24.57 0 33.938z"/>
 </g>
</svg>
