<?xml version="1.0" encoding="UTF-8"?>
<svg  version="1.1" viewBox="0 0 1200 1200" xmlns="http://www.w3.org/2000/svg">
 <path transform="scale(12)" d="m97 49.998c0 16.791-8.958 32.307-23.5 40.703s-32.458 8.3958-47 0-23.5-23.912-23.5-40.703c0-16.792 8.958-32.308 23.5-40.703 14.542-8.3958 32.458-8.3958 47 0 14.542 8.3955 23.5 23.911 23.5 40.703" fill="none" stroke="#fff" stroke-miterlimit="10" stroke-width="6"/>
 <path fill="#ffffff" d="m446.52 326.41c39.086-41.602 92.738-62.41 160.96-62.41 63.109 0 113.64 17.797 151.59 53.387 37.953 35.605 56.938 81.086 56.938 136.45 0 33.539-6.875 60.742-20.652 81.637-13.754 20.879-41.965 51.574-84.613 92.074-31.02 29.426-51.215 54.336-60.574 74.746-9.3594 20.398-14.039 50.543-14.039 90.406l-84.48 0.003906c0-45.254 5.375-81.707 16.152-109.39 10.754-27.695 34.691-59.398 71.797-95.16l38.734-37.5c11.617-10.754 21.035-21.984 28.262-33.707 13.152-20.555 19.715-41.914 19.715-64.066 0-31.008-9.4453-57.898-28.344-80.688-18.887-22.777-50.148-34.176-93.758-34.176-53.953 0-91.246 19.621-111.94 58.848-11.629 21.828-18.254 53.316-19.859 94.453h-84.48c-0.023437-68.32 19.516-123.3 58.598-164.91zm103.22 545.09h94.453v98.723h-94.453z"/>
</svg>
