<?xml version="1.0" encoding="utf-8"?>
<!-- Generator: Adobe Illustrator 16.0.3, SVG Export Plug-In . SVG Version: 6.00 Build 0)  -->
<!DOCTYPE svg PUBLIC "-//W3C//DTD SVG 1.1//EN" "http://www.w3.org/Graphics/SVG/1.1/DTD/svg11.dtd">
<svg version="1.1" id="Layer_1" xmlns="http://www.w3.org/2000/svg" xmlns:xlink="http://www.w3.org/1999/xlink" x="0px" y="0px"
	 width="1163.656px" height="793.558px" viewBox="18.181 203.239 1163.656 793.558"
	 enable-background="new 18.181 203.239 1163.656 793.558" xml:space="preserve">
<g>
	<path fill="#FFFFFF" d="M522.22,326.04c3.383,8.438,9.602,14.289,16,16.035c13.637,26.836,35.562,48.871,61.78,48.871
		c26.22,0,48.108-22,61.78-48.871c6.398-1.781,12.617-7.602,16-16.035c3.892-9.855,2.763-20.184-2.184-26.145
		c0.801-5.309,1.272-10.508,1.272-15.418c0-44.801-34.473-81.238-76.871-81.238c-42.396,0-76.87,36.438-76.87,81.238
		c0,4.91,0.473,10.074,1.272,15.418C519.452,305.86,518.327,316.149,522.22,326.04L522.22,326.04z"/>
	<path fill="#FFFFFF" d="M191.38,401.89c45.309,0,78.107-60.727,78.107-101.709c0-43.055-35.055-78.109-78.107-78.109
		c-43.055,0.004-78.109,35.059-78.109,78.113c0,40.98,10.398,101.709,78.109,101.709V401.89z"/>
	<path fill="#FFFFFF" d="M399.09,729.64c-36.945-44.396-83.418-45.309-129.602-50.361c-0.87-35.021-2.727-68.186-5.197-97.928
		c18.689,17.418,38.473,32.256,53.562,33.674c10.035,0.909,25.562,1.418,42.979,1.563h38.69c32.762-0.438,53.816,0,61.637,0
		c40.763,0,31.345-44.109-0.508-49.854c-22.582-4.035-124.25-18.255-124.25-18.255c-30.145-20.944-87.711-88.909-101.75-105.75
		c-0.69-0.836-1.452-1.711-2.145-2.547c-0.254-0.289-1.055-1.272-1.055-1.272l-0.181,0.004c-12.288-14-30.033-23.238-53.891-21.746
		c-40.836,2.547-86.728,16.91-94.289,97.746c-2.98,31.672,2.328,187.64,14.91,230.689c15.238,52.146,106.07,44.728,142.439,45.163
		c22.836,0.22,46.474,0.438,65.925,5.199c20.945,5.129,32.475,7.891,52.475,36.871c24.762,35.855,66.035,157.96,112.55,157.96
		c22.184,0,38.146-20.108,28.074-49.344c-7.099-20.91-41.97-141.71-100.37-211.82L399.09,729.64z"/>
	<path fill="#FFFFFF" d="M356.948,661.2c0,10.363,8.398,18.836,18.803,18.836h448.51c10.396,0,18.836-8.438,18.836-18.836
		c0-10.438-8.438-18.836-18.836-18.836H375.75C365.349,642.364,356.948,650.763,356.948,661.2L356.948,661.2z"/>
	<path fill="#FFFFFF" d="M269.49,811.82H127.56c-32.438,0-51.492-11.639-61.746-37.639c-10-25.344-10-59.452-10-90.979v-218.18
		c0-10.363-8.397-18.838-18.801-18.838c-10.396,0.005-18.832,8.479-18.832,18.842v219.6c0,33.453,0,71.383,12.617,103.34
		c16.109,40.764,48.656,61.418,96.762,61.418H269.45c26.801,0,30.252,16.186,30.252,30.254v98.289
		c0,10.438,8.438,18.836,18.836,18.836c10.398,0,18.803-8.362,18.803-18.836v-98.289C337.341,837.748,311.341,811.819,269.49,811.82
		L269.49,811.82z"/>
	<path fill="#FFFFFF" d="M1008.6,401.89c67.672,0,78.109-60.727,78.109-101.709c0-43.055-35.057-78.109-78.109-78.109
		c-43.055,0-78.109,35.09-78.109,78.109C930.49,341.164,963.325,401.89,1008.6,401.89z"/>
	<path fill="#FFFFFF" d="M959.56,790.729c36.363-0.438,127.16,6.944,142.44-45.163c12.582-43.057,17.891-199.021,14.908-230.69
		c-7.563-80.836-53.49-95.164-94.289-97.746c-23.854-1.492-41.602,7.746-53.891,21.746h-0.109c0,0-0.801,0.98-1.055,1.273
		c-0.727,0.836-1.453,1.711-2.145,2.547c-14.074,16.836-71.603,84.801-101.75,105.75c0,0-101.67,14.219-124.25,18.254
		c-31.854,5.746-41.272,49.854-0.509,49.854c7.816,0,28.871-0.438,61.638,0h38.69c17.418-0.145,32.945-0.655,42.979-1.563
		c15.091-1.418,34.871-16.254,53.563-33.672c-2.473,29.745-4.328,62.909-5.198,97.926c-46.185,5.055-92.656,5.965-129.601,50.362
		c-58.397,70.108-93.272,190.91-100.439,211.71c-10.035,29.272,5.926,49.345,28.108,49.345c46.474,0,87.78-122.07,112.55-157.96
		c20.035-28.98,31.563-31.746,52.474-36.871c19.414-4.656,43.051-4.875,65.888-5.094L959.56,790.729z"/>
	<path fill="#FFFFFF" d="M1163,446.22c-10.398,0-18.803,8.438-18.803,18.836v219.602c0,30.107,0,64.219-10,89.562
		c-10.254,26-29.309,37.639-61.746,37.639h-141.89c-41.854,0-67.854,25.926-67.854,67.814v98.289
		c0,10.438,8.397,18.836,18.802,18.836c10.396,0,18.836-8.363,18.836-18.836l0.004-98.324c0-14.072,3.453-30.254,30.254-30.254
		h141.89c48.109,0,80.656-20.656,96.763-61.418c12.582-31.965,12.582-69.891,12.582-104.77V465.014
		c0-10.357-8.435-18.797-18.837-18.797V446.22L1163,446.22z"/>
	<path fill="#FFFFFF" d="M513.158,600.25c-0.508,5.527-2.184,11.164-4.91,16.328h183.49c-2.727-5.199-4.397-10.801-4.91-16.328
		c-2.438-27.344,18.691-52.91,48.074-58.184c3.603-0.656,9.492-1.638,16.108-2.617c-4.98-54.186-12.944-83.384-12.944-83.384
		c-4.945-29.966-89.927-53.199-89.927-53.199l-28.362,86.801c-3.09-25.855-5.815-48.289-6.219-51.855
		c18.184-4.327,17.891-17.672,15.672-24.656c-2.656-8.362-16.836-10.727-29.238-10.219c-12.396-0.508-26.582,1.855-29.237,10.219
		c-2.22,6.945-2.509,20.329,15.673,24.656c-0.398,3.563-3.09,26-6.219,51.855l-28.363-86.801c0,0-84.98,23.237-89.926,53.199
		c0,0-8,29.198-12.945,83.384c6.656,0.979,12.508,2,16.109,2.617c29.383,5.271,50.512,30.84,48.072,58.184H513.158z"/>
</g>
</svg>
