<?xml version="1.0" encoding="utf-8"?>
<!-- Generator: Adobe Illustrator 16.0.3, SVG Export Plug-In . SVG Version: 6.00 Build 0)  -->
<!DOCTYPE svg PUBLIC "-//W3C//DTD SVG 1.1//EN" "http://www.w3.org/Graphics/SVG/1.1/DTD/svg11.dtd">
<svg version="1.1" id="Layer_1" xmlns="http://www.w3.org/2000/svg" xmlns:xlink="http://www.w3.org/1999/xlink" x="0px" y="0px"
	 width="1008px" height="816px" viewBox="96 192 1008 816" enable-background="new 96 192 1008 816" xml:space="preserve">
<g>
	<path fill="#FFFFFF" d="M1032,192H168c-19.096,0-37.41,7.586-50.91,21.09C103.586,226.59,96,244.906,96,264v672
		c0,19.094,7.586,37.41,21.09,50.91c13.5,13.504,31.814,21.09,50.91,21.09h864c19.094,0,37.408-7.586,50.908-21.09
		C1096.413,973.41,1104,955.094,1104,936V264c0-19.094-7.587-37.41-21.092-50.91C1069.408,199.586,1051.094,192,1032,192z M1056,936
		c0,6.363-2.527,12.469-7.031,16.969c-4.5,4.504-10.605,7.031-16.971,7.031H167.999c-6.363,0-12.47-2.527-16.97-7.031
		c-4.504-4.5-7.03-10.604-7.03-16.969V264c0-6.363,2.526-12.469,7.03-16.969c4.5-4.504,10.605-7.031,16.97-7.031h863.999
		c6.363,0,12.471,2.527,16.971,7.031c4.504,4.5,7.031,10.604,7.031,16.969V936z"/>
	<path fill="#FFFFFF" d="M216,216h768c25.461,0,49.879,10.113,67.883,28.117S1080,286.539,1080,312H120
		c0-25.461,10.111-49.879,28.117-67.883C166.121,226.113,190.539,216,216,216z"/>
	<path fill="#FFFFFF" d="M984,192H216c-31.824,0-62.35,12.645-84.854,35.148C108.644,249.652,96,280.175,96,312
		c0,6.363,2.526,12.469,7.03,16.969c4.5,4.504,10.604,7.031,16.97,7.031h960c6.362,0,12.469-2.527,16.969-7.031
		c4.504-4.5,7.031-10.604,7.031-16.969c0-31.824-12.646-62.348-35.148-84.852S1015.824,192,984,192L984,192z M148.32,288
		c4.953-14.004,14.113-26.137,26.23-34.73c12.117-8.594,26.594-13.227,41.449-13.27h767.999c14.854,0.043,29.332,4.676,41.448,13.27
		c12.117,8.594,21.277,20.727,26.23,34.73H148.32z"/>
	<path fill="#FFFFFF" d="M352.32,720L249.12,619.2c-4.574-4.586-7.142-10.801-7.142-17.277c0-6.479,2.566-12.695,7.142-17.281
		l103.198-104.64l33.604,34.56l-85.441,85.44L384,683.522L352.32,720z"/>
	<path fill="#FFFFFF" d="M432,720h144v48H432V720z"/>
</g>
</svg>
