<?xml version="1.0" encoding="utf-8"?>
<!-- Generator: Adobe Illustrator 16.0.3, SVG Export Plug-In . SVG Version: 6.00 Build 0)  -->
<!DOCTYPE svg PUBLIC "-//W3C//DTD SVG 1.1//EN" "http://www.w3.org/Graphics/SVG/1.1/DTD/svg11.dtd">
<svg version="1.1" id="Layer_1" xmlns="http://www.w3.org/2000/svg" xmlns:xlink="http://www.w3.org/1999/xlink" x="0px" y="0px"
	 width="634.79px" height="468.529px" viewBox="282.61 365.73 634.79 468.529"
	 enable-background="new 282.61 365.73 634.79 468.529" xml:space="preserve">
<path fill="#FFFFFF" d="M403.52,365.73c-66.723,0-120.91,54.191-120.91,120.91v226.709c0,66.725,54.191,120.91,120.91,120.91h392.97
	c66.725,0,120.91-54.189,120.91-120.91V486.64c0-66.723-54.189-120.91-120.91-120.91H403.52z M403.52,395.96h392.97
	c50.5,0,90.688,40.184,90.688,90.688v226.711c0,50.5-40.186,90.688-90.688,90.688H403.52c-50.5,0-90.688-40.184-90.688-90.688
	V486.648C312.83,436.148,353.016,395.96,403.52,395.96L403.52,395.96z M538.368,486.648v-0.004c-3.801,0.297-7.348,2.02-9.93,4.824
	c-2.586,2.801-4.016,6.477-4.004,10.287v196.49c-0.051,3.594,1.18,7.094,3.473,9.863s5.5,4.633,9.043,5.25
	c3.578,0.641,7.271-0.031,10.393-1.891l166.26-98.242c3.09-1.773,5.453-4.582,6.672-7.926c1.224-3.348,1.224-7.016,0-10.357
	c-1.219-3.35-3.582-6.156-6.672-7.932l-166.26-98.24c-2.695-1.625-5.832-2.367-8.974-2.125L538.368,486.648z M554.666,528.449
	l121.149,71.559L554.666,671.8V528.449z"/>
</svg>
