<?xml version="1.0" encoding="utf-8"?>
<!-- Generator: Adobe Illustrator 16.0.3, SVG Export Plug-In . SVG Version: 6.00 Build 0)  -->
<!DOCTYPE svg PUBLIC "-//W3C//DTD SVG 1.1//EN" "http://www.w3.org/Graphics/SVG/1.1/DTD/svg11.dtd">
<svg version="1.1" xmlns="http://www.w3.org/2000/svg" xmlns:xlink="http://www.w3.org/1999/xlink" x="0px" y="0px"
	 width="100%" height="100%" viewBox="0 0 2369.614 2458.633" enable-background="new 0 0 2369.614 2458.633"
	 xml:space="preserve">
<g id="substrate">
</g>
<g id="body">
	<path fill="#FFFFFF" d="M461.735,2057.467l84.075,222.049l5.129,2.73c160.269,85.123,341.413,130.115,523.846,130.115
		c390.731,0,758.319-208.385,959.323-543.836l7.564-12.617l-12.254-8.152c-12.146-8.082-23.584-17.443-33.986-27.848
		c-41.398-41.404-64.201-96.443-64.201-154.992s22.803-113.598,64.201-154.994c41.396-41.398,96.445-64.195,154.994-64.195
		c5.629,0,11.383,0.217,17.09,0.656l14.689,1.127l1.799-14.623c5.621-45.715,8.475-92.219,8.475-138.221
		c0-203.278-54.916-401.689-158.973-574.868l39.33-24.385c51.947,86.334,92.389,178.947,120.299,275.515
		c30.268,104.751,45.615,213.674,45.615,323.738c0,50.992-3.355,102.469-9.979,153.004l-1.512,11.516l10.648,4.627
		c25.148,10.951,47.861,26.467,67.512,46.109c41.396,41.396,64.193,96.445,64.193,154.994s-22.797,113.588-64.193,154.992
		c-41.406,41.398-96.445,64.203-154.994,64.203c-18.555,0-36.986-2.314-54.793-6.879l-11.236-2.877l-5.885,9.994
		c-98.242,166.871-237.828,307.914-403.664,407.883c-88.688,53.459-184.053,94.779-283.451,122.813
		c-102.545,28.92-209.063,43.588-316.612,43.588c-100.896,0-201.065-12.934-297.718-38.43
		c-87.977-23.213-173.294-56.906-253.575-100.162l-6.201-3.332l-207.874,78.709l-92.813-245.139L461.735,2057.467z
		 M1349.489,1276.707c-27.973-7.566-112.016-20.346-113.783-20.346c-7.441,0-14.375,4.988-17.049,12.977l-123.029,366.26
		c-7.104,21.119-34.66,21.119-41.736,0l-123.042-366.26c-3.312-9.877-13.167-15.188-22.414-12.088c0,0-81.746,12.398-108.419,19.471
		c-0.091,0.014-0.26,0.084-0.337,0.127c-74.163,26.275-124.275,101.398-124.288,186.031v295.523h798.788v-294.508
		C1474.178,1378.895,1425.936,1297.318,1349.489,1276.707z M0,847.052l42.947,17.244C131.202,653.16,286.188,470.148,480.76,347.745
		l11.954-7.519l8.537,11.236c6.092,8.013,12.763,15.655,19.819,22.719c41.397,41.398,96.445,64.202,154.994,64.202
		c58.548,0,113.588-22.804,154.994-64.202c41.398-41.397,64.202-96.445,64.202-154.994c0-4.357-0.146-8.946-0.439-13.642
		l-0.856-14.105l13.974-2.09c54.932-8.213,111.067-12.377,166.847-12.377c213.751,0,421.394,60.461,600.472,174.836l5.137,3.277
		l56.119,219.589l253.953-64.903l-64.902-253.96l-224.695,57.431l-5.613-3.548c-82.719-52.225-171.783-93.815-264.711-123.614
		c-114.6-36.748-234.289-55.379-355.759-55.379c-59.983,0-120.383,4.643-179.533,13.789l-11.969,1.851l-4.635-11.182
		c-10.997-26.506-27.007-50.374-47.59-70.965C789.652,22.796,734.612,0,676.064,0C617.515,0,562.467,22.796,521.07,64.194
		c-41.397,41.405-64.202,96.445-64.202,154.994c0,23.398,3.64,46.387,10.813,68.335l3.756,11.506l-10.28,6.386
		c-99.676,61.926-189.304,138.429-266.377,227.377C113.172,626.97,47.698,732.623,0,847.052z M1019.624,1296.438l27.629,45.215
		l-13.436,123.189l27.242,78.645c2.103,6.266,7.506,21.313,13.721,21.318c6.217,0,11.613-15.043,13.751-21.377l27.222-78.586
		l-13.449-123.189l27.841-45.586c7.155-13.449,5.028-30.537-5.173-41.553c-5.805-6.264-14.232-9.857-23.123-9.857h-54.152
		c-8.883,0-17.306,3.594-23.109,9.857c-10.199,11.029-12.324,28.115-5.175,41.553L1019.624,1296.438z M82.34,1322.346
		c0,58.547,22.796,113.588,64.202,154.992c41.397,41.398,96.445,64.195,154.994,64.195c1.242,0,2.483-0.023,3.725-0.039
		l11.476-0.209l3.625,10.65c23.977,70.355,57.801,137.08,100.54,198.313c48.053,68.844,106.378,129.459,173.348,180.166
		c67.726,51.26,142.655,91.131,222.705,118.484c82.787,28.303,169.538,42.646,257.832,42.646c56.876,0,113.657-6.023,168.769-17.914
		c53.674-11.576,106.309-28.82,156.436-51.254c49.209-22.018,96.398-49.217,140.264-80.836
		c39.322-28.342,76.201-60.4,109.803-95.436l-34.018-31.379c-141.09,146.711-337.451,230.547-541.253,230.547
		c-315.988,0-600.033-199.893-706.812-497.402l-5.174-14.412l14.382-5.275c29.861-10.951,56.551-28.064,79.34-50.846
		c41.405-41.404,64.202-96.445,64.202-154.992c0-58.551-22.796-113.598-64.202-154.995c-26.313-26.313-58.896-45.577-94.239-55.703
		l-14.722-4.226l4.118-14.753c90.252-323.013,387.608-548.609,723.106-548.609c160.099,0,312.208,49.418,440.913,143.079
		l27.979-36.871c-64.502-47.02-135.281-83.89-210.611-109.687c-82.928-28.395-169.824-42.793-258.28-42.793
		c-93.129,0-184.361,15.925-271.158,47.328c-83.875,30.346-161.649,74.389-231.157,130.902
		c-68.906,56.012-127.617,122.573-174.505,197.826c-42.23,67.788-73.872,141.174-94.039,218.131l-2.854,10.905l-11.259,0.586
		c-54.014,2.823-104.897,25.511-143.271,63.885C105.136,1208.748,82.34,1263.795,82.34,1322.346z M1228.971,965.983
		c0,0,7.551-40.364,10.51-71.422c3.662-38.709-22.594-138.707-162.676-138.707c-0.612,0-1.176,0.033-1.779,0.042
		c-0.018,0-0.039,0-0.057,0v-0.008c-0.064,0-0.123,0-0.188,0c-0.057,0-0.115,0-0.18,0v0.008c-0.017,0-0.04,0-0.057,0
		c-0.604-0.008-1.167-0.042-1.787-0.042c-140.074,0-166.331,99.998-162.671,138.707c2.96,31.058,10.513,71.422,10.513,71.422
		s-14.859,6.785-14.859,34.062c5.213,68.431,32.432,38.936,38.041,68.919c9.337,49.848,53.468,85.899,80.941,98.351
		c16.029,7.265,32.533,10.909,49.887,11.195v0.017c0.057,0,0.115-0.008,0.18-0.008c0.057,0,0.115,0.008,0.18,0.008v-0.017
		c17.352-0.286,33.857-3.931,49.879-11.195c27.475-12.452,71.604-48.503,80.941-98.351c5.617-29.983,32.828-0.488,38.039-68.919
		C1243.829,972.768,1228.971,965.983,1228.971,965.983z"/>
</g>
</svg>
