<?xml version="1.0" encoding="UTF-8"?>
<svg  version="1.1" viewBox="0 0 1200 1200" xmlns="http://www.w3.org/2000/svg" fill="#ffffff">
 <path d="m616.37 662.53v339.3c126.29-64.715 271.93-62.52 414.86-46.441v-546.08c-48.492-5.8828-97.266-9.1211-146.11-9.707-4.1562 53.527-23.375 104.79-55.43 147.86 45.039-3.4883 90.289-3.1289 135.27 1.0781 5.8008 0.50391 10.891 4.0664 13.355 9.3398 2.4648 5.2773 1.9258 11.465-1.4102 16.234-3.3359 4.7734-8.9648 7.4023-14.766 6.8984-29.016-2.6602-58.156-3.7148-87.289-3.168-25.812 0.49609-51.578 2.457-77.172 5.8672-49.09 47.082-113.4 75.051-181.31 78.852zm-21.168-455.38c7.0703-0.003906 13.852 2.8008 18.852 7.8008 5.0039 4.9961 7.8125 11.777 7.8125 18.848 0 7.0703-2.8047 13.852-7.8047 18.848-5 5-11.781 7.8086-18.852 7.8086-7.0703-0.003907-13.848-2.8125-18.848-7.8125-4.9961-5-7.8008-11.781-7.8008-18.852 0-7.0664 2.8086-13.844 7.8047-18.84 4.9961-4.9961 11.77-7.8008 18.836-7.8008zm-47.82 337.64c-4.4141 0.11719-8.6914-1.5508-11.859-4.6328-3.1641-3.082-4.9492-7.3125-4.9492-11.73s1.7852-8.6484 4.9492-11.73c3.168-3.0781 7.4453-4.75 11.859-4.6328h36.254v-198.96h-36.254c-4.4141 0.11719-8.6914-1.5508-11.859-4.6328-3.1641-3.082-4.9492-7.3125-4.9492-11.73 0-4.418 1.7852-8.6484 4.9492-11.73 3.168-3.082 7.4453-4.75 11.859-4.6328h52.621c4.3398 0 8.5039 1.7266 11.574 4.7969 3.0703 3.0664 4.793 7.2305 4.793 11.574v215.28h36.254c4.4141-0.11719 8.6914 1.5508 11.859 4.6328 3.1641 3.082 4.9492 7.3125 4.9492 11.73 0 4.418-1.7852 8.6484-4.9492 11.73-3.168 3.082-7.4453 4.75-11.859 4.6328zm338.4-177.8h0.003906c54.738 0.70312 109.39 4.5625 163.69 11.566 3.9688 0.48047 7.625 2.3945 10.281 5.3867 2.6523 2.9922 4.1172 6.8516 4.1172 10.852v35.23h59.676c4.3555-0.023438 8.543 1.6914 11.629 4.7656 3.0898 3.0703 4.8242 7.2461 4.8242 11.602v646.24c-0.003906 4.3398-1.7305 8.5-4.7969 11.566-3.0703 3.0664-7.2305 4.7891-11.57 4.7891h-1047.3c-4.3398 0-8.5-1.7227-11.57-4.7891-3.0664-3.0664-4.793-7.2266-4.7969-11.566v-646.24c0.003906-4.3359 1.7305-8.4961 4.7969-11.566 3.0703-3.0664 7.2305-4.7891 11.57-4.7891h59.676v-35.242c-0.007813-4.1367 1.5508-8.1211 4.3633-11.152 2.8125-3.0352 6.668-4.8906 10.793-5.1914 30.949-3.7305 61.355-6.7695 91.309-8.8086 24.18-1.6328 48.086-2.5938 71.723-2.6875 2.6289-74.047 33.895-144.19 87.207-195.64 53.312-51.457 124.52-80.211 198.61-80.211s145.3 28.754 198.61 80.211c53.312 51.453 84.574 121.59 87.203 195.64zm-570.9 32.605c-48.844 0.59766-97.621 3.8516-146.11 9.7422v546.05c142.93-16.078 288.57-18.277 414.86 46.441v-339.3c-67.91-3.8047-132.22-31.773-181.31-78.852-25.594-3.4141-51.359-5.3711-77.172-5.8672-29.133-0.54688-58.273 0.50781-87.289 3.168-5.8008 0.50391-11.43-2.125-14.766-6.8984-3.3359-4.7695-3.875-10.961-1.4102-16.234 2.4648-5.2773 7.5547-8.8359 13.355-9.3398 44.977-4.1992 90.227-4.5625 135.27-1.0781-32.051-43.062-51.266-94.312-55.43-147.83zm464.21-201.6h0.003906c35.418 35.422 59.543 80.551 69.316 129.68 9.7734 49.129 4.7578 100.05-14.414 146.34-19.168 46.277-51.629 85.836-93.281 113.66-41.648 27.832-90.617 42.684-140.71 42.684s-99.062-14.852-140.71-42.684c-41.652-27.828-74.113-67.387-93.281-113.66-19.172-46.281-24.188-97.207-14.414-146.34 9.7734-49.129 33.898-94.258 69.316-129.68 31.434-31.449 70.59-54.062 113.54-65.574 42.945-11.512 88.164-11.512 131.11 0 42.945 11.512 82.102 34.125 113.54 65.574zm185.87 625.73c5.8008 0.50391 10.891 4.0664 13.355 9.3398 2.4648 5.2773 1.9258 11.465-1.4102 16.238-3.3359 4.7695-8.9648 7.3984-14.766 6.8945-95.688-10.188-192.45 0.40234-283.67 31.043-5.5039 1.9297-11.617 0.77734-16.039-3.0234-4.4219-3.8008-6.4805-9.6719-5.3984-15.402 1.0781-5.7305 5.1328-10.445 10.637-12.375 95.555-32.219 196.95-43.379 297.23-32.715zm0-137.61v0.003906c5.8008 0.50391 10.891 4.0625 13.355 9.3398 2.4648 5.2734 1.9258 11.461-1.4102 16.234-3.3359 4.7695-8.9648 7.4023-14.766 6.8984-95.688-10.195-192.45 0.39062-283.67 31.031-5.5039 1.9297-11.617 0.77734-16.039-3.0234-4.4219-3.8008-6.4805-9.6758-5.3984-15.402 1.0781-5.7305 5.1328-10.449 10.637-12.379 95.559-32.215 196.95-43.367 297.23-32.699zm-727.09 170.08c95.688-10.184 192.45 0.40625 283.67 31.043 5.5039 1.9297 11.617 0.77734 16.039-3.0234 4.4219-3.8008 6.4805-9.6719 5.3984-15.402-1.0781-5.7305-5.1328-10.445-10.637-12.375-95.555-32.219-196.95-43.379-297.23-32.715-5.8008 0.50391-10.895 4.0664-13.355 9.3398-2.4648 5.2773-1.9297 11.465 1.4102 16.238 3.3359 4.7695 8.9648 7.3984 14.766 6.8945zm0-137.61v0.003906c95.688-10.195 192.45 0.39062 283.67 31.031 5.5039 1.9297 11.617 0.77734 16.039-3.0234 4.4219-3.8008 6.4805-9.6758 5.3984-15.402-1.0781-5.7305-5.1328-10.449-10.637-12.379-95.555-32.219-196.95-43.375-297.23-32.699-5.8008 0.50391-10.895 4.0625-13.355 9.3398-2.4648 5.2734-1.9297 11.461 1.4102 16.234 3.3359 4.7695 8.9648 7.4023 14.766 6.8984zm826.09-255.88h43.309v613.55h-1014.5v-613.55h43.309v511.05c0.019531 4.6641 2.0234 9.1016 5.5117 12.199 3.4883 3.1016 8.1289 4.5664 12.766 4.0352 78.418-11.113 157.8-13.855 236.8-8.1836 70.316 5.2461 138.57 26.188 199.73 61.285 2.6992 1.8359 5.8906 2.8203 9.1562 2.8203s6.457-0.98438 9.1562-2.8203c61.164-35.09 129.41-56.023 199.73-61.273 78.746-5.6602 157.87-2.9453 236.04 8.1016 4.7422 0.78516 9.5898-0.55469 13.258-3.668 3.6641-3.1094 5.7773-7.6758 5.7734-12.484z" fill-rule="evenodd"/>
</svg>
