<?xml version="1.0" encoding="UTF-8"?>
<svg version="1.1" viewBox="0 0 1200 1200" xmlns="http://www.w3.org/2000/svg">
 <g>
  <path fill="#ffffff" d="m1055.7 1007.3h-397.04c-14.242 0-25.777-11.543-25.777-25.777 0-14.23 11.543-25.777 25.777-25.777h397.04c27.359 0 49.633-22.262 49.633-49.633v-612.3c0-27.359-22.262-49.633-49.633-49.633h-911.35c-27.359 0-49.633 22.262-49.633 49.633v123.97c0 14.23-11.543 25.766-25.777 25.766-14.23 0-25.777-11.543-25.777-25.766l0.003906-123.97c0-55.789 45.395-101.18 101.2-101.18h911.34c55.789 0 101.2 45.383 101.2 101.18v612.29c-0.011719 55.801-45.406 101.2-101.2 101.2z"/>
  <path fill="#ffffff" d="m562.03 918.86c-14.398 0-26.102-11.676-26.102-26.09 0-208.57-169.68-378.25-378.25-378.25-14.398 0-26.102-11.699-26.102-26.102 0-14.41 11.699-26.113 26.102-26.113 237.35 0 430.44 193.11 430.44 430.45 0.015624 14.441-11.672 26.105-26.086 26.105z"/>
  <path fill="#ffffff" d="m460.96 918.86c-14.426 0-26.113-11.676-26.113-26.09 0-152.83-124.33-277.16-277.16-277.16-14.398 0-26.102-11.699-26.102-26.113 0-14.398 11.699-26.102 26.102-26.102 181.61 0 329.35 147.76 329.35 329.36 0.011719 14.441-11.676 26.105-26.074 26.105z"/>
  <path fill="#ffffff" d="m359.86 918.86c-14.398 0-26.102-11.676-26.102-26.09 0-97.094-78.984-176.09-176.07-176.09-14.398 0-26.102-11.676-26.102-26.09 0-14.426 11.699-26.113 26.102-26.113 125.87 0 228.27 102.41 228.27 228.28 0.011719 14.441-11.664 26.105-26.09 26.105z"/>
  <path fill="#ffffff" d="m246.47 892.78c0-49.078-39.719-88.777-88.777-88.777-49.055 0-88.766 39.707-88.766 88.777 0 49.066 39.707 88.766 88.766 88.766 49.055-0.003907 88.777-39.699 88.777-88.766z"/>
 </g>
</svg>
