<?xml version="1.0" encoding="utf-8"?>
<!-- Generator: Adobe Illustrator 16.0.3, SVG Export Plug-In . SVG Version: 6.00 Build 0)  -->
<!DOCTYPE svg PUBLIC "-//W3C//DTD SVG 1.1//EN" "http://www.w3.org/Graphics/SVG/1.1/DTD/svg11.dtd">
<svg version="1.1" id="Layer_1" xmlns="http://www.w3.org/2000/svg" xmlns:xlink="http://www.w3.org/1999/xlink" x="0px" y="0px"
	 width="1042.726px" height="827.022px" viewBox="78.585 186.478 1042.726 827.022"
	 enable-background="new 78.585 186.478 1042.726 827.022" xml:space="preserve">
<g>
	<path fill="#FFFFFF" d="M223.16,306.34c0,13.629-11.052,24.676-24.677,24.676c-13.629,0-24.676-11.047-24.676-24.676
		c0-13.625,11.047-24.672,24.676-24.672C212.109,281.668,223.16,292.715,223.16,306.34"/>
	<path fill="#FFFFFF" d="M316.43,306.34c0,13.629-11.047,24.676-24.676,24.676s-24.676-11.047-24.676-24.676
		c0-13.625,11.047-24.672,24.676-24.672S316.43,292.715,316.43,306.34"/>
	<path fill="#FFFFFF" d="M409.69,306.34c0,13.629-11.047,24.676-24.676,24.676c-13.625,0-24.676-11.047-24.676-24.676
		c0-13.625,11.051-24.672,24.676-24.672C398.643,281.668,409.69,292.715,409.69,306.34"/>
	<path fill="#FFFFFF" d="M1063.6,1013.5H136.3c-31.836,0-57.711-25.875-57.711-57.711l-0.004-711.6
		c0-31.836,25.875-57.711,57.711-57.711h927.3c31.836,0,57.711,25.875,57.711,57.711l0.004,711.6
		C1121.311,987.625,1095.436,1013.5,1063.6,1013.5L1063.6,1013.5z M136.3,226.9c-9.523,0-17.289,7.762-17.289,17.289v711.6
		c0,9.523,7.762,17.289,17.289,17.289l927.3-0.004c9.523,0,17.289-7.762,17.289-17.289v-711.6c0-9.523-7.762-17.289-17.289-17.289
		L136.3,226.9z"/>
	<path fill="#FFFFFF" d="M598.84,678.15c-49.763,0-90.228-40.461-90.228-90.228c0-49.762,40.461-90.227,90.228-90.227
		c49.762,0,90.227,40.461,90.227,90.227C689.067,637.685,648.606,678.15,598.84,678.15z M598.84,538.13
		c-27.449,0-49.802,22.353-49.802,49.801c0,27.449,22.353,49.802,49.802,49.802c27.448,0,49.801-22.353,49.801-49.802
		C648.641,560.482,626.289,538.13,598.84,538.13z"/>
	<path fill="#FFFFFF" d="M759.38,818.93h-40.427v-16.914c0-34.647-28.198-62.852-62.852-62.852H541.541
		c-34.688,0-62.887,28.199-62.887,62.852v16.914h-40.426v-16.914c0-56.961,46.352-103.27,103.31-103.27h114.561
		c56.961,0,103.27,46.312,103.27,103.27v16.914H759.38z"/>
	<path fill="#FFFFFF" d="M950.44,676.88c0,26.035-21.104,47.137-47.137,47.137c-26.035,0-47.138-21.102-47.138-47.137
		s21.103-47.137,47.138-47.137C929.334,629.743,950.44,650.845,950.44,676.88"/>
	<path fill="#FFFFFF" d="M997.909,807.41v11.512h-189V807.41c0-30.676,24.75-55.801,55.802-55.801h77.062
		C972.823,751.609,997.909,776.695,997.909,807.41L997.909,807.41z"/>
	<path fill="#FFFFFF" d="M343.57,676.88c0,26.035-21.102,47.137-47.137,47.137s-47.137-21.102-47.137-47.137
		s21.102-47.137,47.137-47.137S343.57,650.845,343.57,676.88"/>
	<path fill="#FFFFFF" d="M391.05,807.41v11.512H202.09V807.41c0-30.676,24.75-55.801,55.801-55.801h77.062
		c31.052,0,56.138,25.086,56.138,55.801H391.05z"/>
</g>
</svg>
