<?xml version="1.0" encoding="utf-8"?>
<!-- Generator: Adobe Illustrator 16.0.3, SVG Export Plug-In . SVG Version: 6.00 Build 0)  -->
<!DOCTYPE svg PUBLIC "-//W3C//DTD SVG 1.1//EN" "http://www.w3.org/Graphics/SVG/1.1/DTD/svg11.dtd">
<svg version="1.1" id="Layer_1" xmlns="http://www.w3.org/2000/svg" xmlns:xlink="http://www.w3.org/1999/xlink" x="0px" y="0px"
	 width="1059.354px" height="692.415px" viewBox="70.331 132.821 1059.354 692.415"
	 enable-background="new 70.331 132.821 1059.354 692.415" xml:space="preserve">
<path d="M93.508,802.04h1013.199V155.77H93.508V802.04z M1118.207,825.235H81.808c-6.348,0-11.477-5.129-11.477-11.478v-669.46
	c0-6.348,5.129-11.477,11.477-11.477h1036.399c6.348,0,11.478,5.129,11.478,11.477v669.46
	C1129.681,820.105,1124.556,825.235,1118.207,825.235z"/>
<path d="M167.24,728.3h865.52V229.5H167.24L167.24,728.3L167.24,728.3z M1044.23,751.495H155.52
	c-6.348,0-11.477-5.129-11.477-11.478l0.004-521.99c0-6.348,5.129-11.477,11.477-11.477h888.71c6.348,0,11.478,5.129,11.478,11.477
	v521.75c0.238,6.348-4.887,11.719-11.48,11.719L1044.23,751.495z"/>
<path d="M383.8,563.5c-16.849,0-33.691-7.324-50.297-21.973c-4.641-4.152-5.129-11.478-0.977-16.359
	c4.152-4.641,11.477-5.129,16.358-0.977c24.172,21.484,45.656,21.484,69.582,0c4.883-4.152,11.965-3.906,16.359,0.977
	c4.152,4.641,3.906,11.965-0.977,16.359C417.49,555.929,400.647,563.5,383.8,563.5L383.8,563.5z"/>
<path d="M556.18,696.56H211.2c-6.349,0-11.478-5.129-11.478-11.477v-43.215c0-66.41,54.203-120.61,120.609-120.61h20.996
	c6.348,0,11.478,5.129,11.478,11.478c0,6.348-5.129,11.477-11.478,11.477h-20.996c-53.714,0-97.417,43.703-97.417,97.418v31.738
	h322.039V641.63c0-53.715-43.702-97.418-97.418-97.418H426.54c-6.348,0-11.477-5.129-11.477-11.477s5.129-11.478,11.477-11.478
	h20.996c66.41,0,120.61,54.203,120.61,120.61v43.215c-0.238,6.348-5.609,11.477-11.957,11.477H556.18z"/>
<path d="M426.289,544.21c-6.348,0-11.477-5.129-11.477-11.477v-46.875c0-6.348,5.129-11.478,11.477-11.478
	c6.349,0,11.478,5.129,11.478,11.478v46.875C437.767,539.085,432.642,544.21,426.289,544.21z"/>
<path d="M341.079,544.21c-6.348,0-11.477-5.129-11.477-11.477v-46.875c0-6.348,5.129-11.478,11.477-11.478
	c6.349,0,11.478,5.129,11.478,11.478v46.875C352.799,539.085,347.428,544.21,341.079,544.21z"/>
<path d="M316.659,366.23v55.668c0,34.914,28.32,63.234,63.234,63.234h7.57c34.914,0,63.234-28.32,63.234-63.234V366.23
	c-4.883-5.859-15.138-15.871-24.66-17.336c-3.664-0.488-7.082,0.246-10.254,2.93c-31.496,23.926-62.746,4.641-77.884-4.883
	C335.213,347.187,327.156,352.07,316.659,366.23L316.659,366.23z M387.465,508.32h-7.57c-47.609,0-86.43-38.82-86.43-86.43v-59.574
	c0-2.688,0.734-5.129,2.441-7.082v-0.246c19.776-27.59,38.819-37.355,53.715-28.078c18.065,11.23,34.426,19.531,52.004,6.105
	c11.965-9.035,26.612-10.012,41.262-2.688c6.836,3.418,13.918,8.789,20.508,15.625c10.254,10.5,10.254,12.941,10.254,16.113v59.816
	C473.891,469.499,435.074,508.32,387.465,508.32L387.465,508.32z"/>
<path d="M493.92,395.28c-6.348,0-11.478-5.129-11.478-11.477v-14.406c0-22.461-8.789-43.945-24.901-59.816
	c-16.113-16.113-37.355-24.902-59.816-24.902h-27.59c-46.875,0-84.965,38.086-84.965,84.965v14.16
	c0,6.348-5.129,11.477-11.478,11.477c-6.348,0-11.477-5.129-11.477-11.477v-14.16c0-59.574,48.344-108.16,107.91-108.16h27.59
	c28.809,0,55.91,11.23,76.176,31.738c20.508,20.508,31.738,47.609,31.738,76.176v14.406c-0.242,6.348-5.367,11.477-11.716,11.477
	L493.92,395.28z"/>
<path d="M492.94,448.021h-31.984c-6.348,0-11.477-5.129-11.477-11.478c0-6.348,5.129-11.477,11.477-11.477h28.566v-29.785H462.42
	c-6.348,0-11.478-5.129-11.478-11.477c0-6.348,5.129-11.477,11.478-11.477h30.52c10.988,0,19.777,8.789,19.777,19.777v36.621
	c-0.246,10.505-9.035,19.294-19.777,19.294V448.021z"/>
<path d="M306.409,448.02h-31.983c-10.988,0-19.777-8.789-19.777-19.776v-36.621c0-10.988,8.789-19.777,19.777-19.777h30.52
	c6.348,0,11.478,5.129,11.478,11.477s-5.129,11.477-11.478,11.477h-27.102v29.785h28.565c6.348,0,11.478,5.129,11.478,11.477
	c0.242,6.836-5.129,11.961-11.478,11.961V448.02z"/>
<path d="M816.44,563.5c-16.848,0-33.691-7.324-50.297-21.973c-4.883-4.152-5.129-11.478-0.977-16.359
	c4.152-4.641,11.477-5.129,16.359-0.977c24.172,21.484,45.655,21.484,69.582,0c4.641-4.152,11.965-3.906,16.358,0.977
	c4.152,4.641,3.906,11.965-0.977,16.359C850.131,555.929,833.282,563.5,816.44,563.5L816.44,563.5z"/>
<path d="M988.81,696.56h-344.98c-6.348,0-11.477-5.129-11.477-11.477v-43.215c0-66.41,54.203-120.61,120.61-120.61h20.995
	c6.349,0,11.478,5.129,11.478,11.478c0,6.348-5.129,11.477-11.478,11.477h-20.995c-53.716,0-97.418,43.703-97.418,97.418v31.738
	h322.039V641.63c0-53.715-43.702-97.418-97.418-97.418h-20.995c-6.348,0-11.478-5.129-11.478-11.477s5.129-11.478,11.478-11.478
	h20.995c66.41,0,120.61,54.203,120.61,120.61v43.215c-0.238,6.348-5.609,11.477-11.957,11.477H988.81z"/>
<path d="M858.92,544.21c-6.348,0-11.478-5.129-11.478-11.477v-46.875c0-6.348,5.129-11.478,11.478-11.478
	c6.348,0,11.477,5.129,11.477,11.478v46.875C870.397,539.085,865.268,544.21,858.92,544.21z"/>
<path d="M773.96,544.21c-6.349,0-11.478-5.129-11.478-11.477v-46.875c0-6.348,5.129-11.478,11.478-11.478
	c6.348,0,11.477,5.129,11.477,11.478v46.875C785.437,539.085,780.308,544.21,773.96,544.21z"/>
<path d="M749.3,366.23v55.668c0,34.914,28.319,63.234,63.233,63.234h7.57c34.914,0,63.234-28.32,63.234-63.234V366.23
	c-4.883-5.859-15.137-15.871-24.66-17.336c-3.664-0.488-7.082,0.246-10.254,2.93c-31.496,23.926-62.746,4.641-77.883-4.883
	C767.854,347.187,759.799,352.07,749.3,366.23L749.3,366.23z M820.105,508.32h-7.57c-47.609,0-86.43-38.82-86.43-86.43v-59.574
	c0-2.688,0.977-5.129,2.441-7.082v-0.246c19.776-27.59,38.819-37.355,53.715-28.078c18.065,11.23,34.426,19.531,52.004,6.105
	c11.965-9.035,26.613-10.012,41.262-2.688c6.836,3.418,13.918,8.789,20.509,15.625c10.254,10.5,10.254,12.941,10.254,16.113v59.816
	C906.535,469.499,867.715,508.32,820.105,508.32L820.105,508.32z"/>
<path d="M926.55,395.28c-6.348,0-11.478-5.129-11.478-11.477v-14.406c0-46.875-38.086-84.965-84.965-84.965h-27.59
	c-46.875,0-84.965,38.086-84.965,84.965v14.406c0,6.348-5.129,11.477-11.478,11.477c-6.348,0-11.477-5.129-11.477-11.477v-14.406
	c0-59.574,48.344-107.91,107.91-107.91h27.598c59.574,0,107.91,48.344,107.91,107.91v14.406c0.242,6.105-5.129,11.477-11.477,11.477
	H926.55z"/>
<path d="M925.57,448.021h-31.983c-6.348,0-11.478-5.129-11.478-11.478c0-6.348,5.129-11.477,11.478-11.477h28.565v-29.785H895.05
	c-6.348,0-11.478-5.129-11.478-11.477c0-6.348,5.129-11.477,11.478-11.477h30.52c10.988,0,19.777,8.789,19.777,19.777v36.621
	c0,10.505-9.035,19.294-19.777,19.294V448.021z"/>
<path d="M739.039,448.02h-31.983c-10.988,0-19.777-8.789-19.777-19.776v-36.621c0-10.988,8.789-19.777,19.777-19.777h30.52
	c6.348,0,11.478,5.129,11.478,11.477s-5.129,11.477-11.478,11.477h-27.102v29.785h28.565c6.348,0,11.478,5.129,11.478,11.477
	c0.242,6.836-4.883,11.961-11.478,11.961V448.02z"/>
<path d="M600.119,751.5c-6.348,0-11.477-5.129-11.477-11.477l0.004-521.99c0-6.348,5.129-11.477,11.477-11.477
	c6.349,0,11.478,5.129,11.478,11.477v521.75c-0.004,6.348-5.133,11.719-11.48,11.719L600.119,751.5z"/>
</svg>
