<?xml version="1.0" encoding="UTF-8"?>
<svg width="1200pt" height="1200pt" version="1.1" viewBox="0 0 1200 1200" xmlns="http://www.w3.org/2000/svg">
 <path d="m1059.8 238.56h-919.68c-8.7188 0-17.082 3.4648-23.25 9.6328-6.168 6.1641-9.6289 14.527-9.6289 23.25v657.12c0 8.7227 3.4609 17.086 9.6289 23.25 6.168 6.168 14.531 9.6328 23.25 9.6328h919.68c8.7188 0 17.082-3.4648 23.25-9.6328 6.168-6.1641 9.6289-14.527 9.6289-23.25v-657.12c0-8.7227-3.4609-17.086-9.6289-23.25-6.168-6.168-14.531-9.6328-23.25-9.6328zm-32.879 328.56h-394.08v-262.8h394.08zm-459.84-262.8v264h-394.08v-264zm-394.08 591.36v-262.8h394.08v264zm459.84 0v-262.8h394.08v264z"/>
</svg>
