<?xml version="1.0" encoding="utf-8"?>
<!-- Generator: Adobe Illustrator 16.0.3, SVG Export Plug-In . SVG Version: 6.00 Build 0)  -->
<!DOCTYPE svg PUBLIC "-//W3C//DTD SVG 1.1//EN" "http://www.w3.org/Graphics/SVG/1.1/DTD/svg11.dtd">
<svg version="1.1" id="Ñëîé_1" xmlns="http://www.w3.org/2000/svg" xmlns:xlink="http://www.w3.org/1999/xlink" x="0px" y="0px"
	 width="800px" height="480px" viewBox="0 0 640 360" enable-background="new 0 0 640 360" xml:space="preserve">
<g>
	<image overflow="visible" width="478" height="307" xlink:href="B06385C9.png"  transform="matrix(1 0 0 1 81 35)">
	</image>
</g>
<g>
	<linearGradient id="SVGID_1_" gradientUnits="userSpaceOnUse" x1="308.3018" y1="303.0684" x2="331.6982" y2="303.0684">
		<stop  offset="0" style="stop-color:#575757"/>
		<stop  offset="0.4985" style="stop-color:#808080"/>
		<stop  offset="1" style="stop-color:#696969"/>
	</linearGradient>
	<path fill="url(#SVGID_1_)" d="M309.392,304.607c-0.602,0-1.09-0.488-1.09-1.091v-1.988h23.396v1.988
		c0,0.603-0.488,1.091-1.091,1.091H309.392z"/>
	<linearGradient id="SVGID_2_" gradientUnits="userSpaceOnUse" x1="320.0005" y1="304.2021" x2="320.0005" y2="302.1484">
		<stop  offset="0" style="stop-color:#3D0F0F"/>
		<stop  offset="0.0754" style="stop-color:#401010"/>
		<stop  offset="0.1312" style="stop-color:#491414"/>
		<stop  offset="0.1808" style="stop-color:#591A1A"/>
		<stop  offset="0.2267" style="stop-color:#702323"/>
		<stop  offset="0.27" style="stop-color:#8D2E2E"/>
		<stop  offset="0.3115" style="stop-color:#B13C3C"/>
		<stop  offset="0.3508" style="stop-color:#DB4C4C"/>
		<stop  offset="0.3549" style="stop-color:#E04E4E"/>
		<stop  offset="0.3785" style="stop-color:#CB4848"/>
		<stop  offset="0.4262" style="stop-color:#A63E3E"/>
		<stop  offset="0.4763" style="stop-color:#873636"/>
		<stop  offset="0.5286" style="stop-color:#702F2F"/>
		<stop  offset="0.5842" style="stop-color:#5F2B2B"/>
		<stop  offset="0.6453" style="stop-color:#552828"/>
		<stop  offset="0.7222" style="stop-color:#522727"/>
		<stop  offset="0.8141" style="stop-color:#4D2323"/>
		<stop  offset="0.9285" style="stop-color:#3D1919"/>
		<stop  offset="1" style="stop-color:#301010"/>
	</linearGradient>
	<path fill="url(#SVGID_2_)" d="M330.608,304.202h-21.216c-0.319,0-0.578-0.259-0.578-0.578v-0.898c0-0.318,0.259-0.577,0.578-0.577
		h21.216c0.318,0,0.577,0.259,0.577,0.577v0.898C331.186,303.943,330.927,304.202,330.608,304.202z"/>
	<g>
		<image overflow="visible" width="24" height="4" xlink:href="B06385CB.png"  transform="matrix(1 0 0 1 308 301)">
		</image>
	</g>
	<g>
		<image overflow="visible" width="24" height="4" xlink:href="B06385CE.png"  transform="matrix(1 0 0 1 308 301)">
		</image>
	</g>
</g>
<g>
	<g>
		<image overflow="visible" width="6" height="6" xlink:href="B06385CF.png"  transform="matrix(1 0 0 1 531 297)">
		</image>
	</g>
	<g>
		<rect x="535.412" y="59.283" fill="#737373" width="1.027" height="237.948"/>
	</g>
	<g>
		<image overflow="visible" width="6" height="7" xlink:href="B06385CA.png"  transform="matrix(1 0 0 1 531 53)">
		</image>
	</g>
	<g>
		<rect x="108.75" y="53.86" fill="#A6A6A6" width="422.844" height="1.026"/>
	</g>
	<g>
		<image overflow="visible" width="6" height="6" xlink:href="B06385C5.png"  transform="matrix(1 0 0 1 103 53)">
		</image>
	</g>
	<g>
		<rect x="103.562" y="58.5" fill="#737373" width="1.026" height="238.627"/>
	</g>
	<g>
		<image overflow="visible" width="7" height="6" xlink:href="B06385C6.png"  transform="matrix(1 0 0 1 103 297)">
		</image>
	</g>
	<g>
		<rect x="109.25" y="301.55" fill="#1A1A1A" width="422.167" height="1.027"/>
	</g>
</g>
<linearGradient id="SVGID_3_" gradientUnits="userSpaceOnUse" x1="101.6846" y1="178.2188" x2="538.3372" y2="178.2188">
	<stop  offset="0" style="stop-color:#4F4F4F"/>
	<stop  offset="0.0557" style="stop-color:#545454"/>
	<stop  offset="0.125" style="stop-color:#646464"/>
	<stop  offset="0.1883" style="stop-color:#787878"/>
	<stop  offset="0.5" style="stop-color:#757575"/>
	<stop  offset="0.7994" style="stop-color:#787878"/>
	<stop  offset="1" style="stop-color:#4F4F4F"/>
</linearGradient>
<path fill="url(#SVGID_3_)" d="M107.016,302.063c-1.666,0-3.016-1.35-3.016-3.016l0.149-241.659c0-1.666,1.35-3.016,3.016-3.016
	h425.82c1.665,0,3.015,1.35,3.015,3.015l-0.149,241.659c0,1.666-1.351,3.016-3.016,3.016H107.016z"/>
<g>
	<g>
		<g>
			<rect x="108.881" y="292.305" fill="#999999" width="421.885" height="1.039"/>
		</g>
	</g>
	<g>
		<rect x="111.565" y="56.239" fill="#1A1A1A" width="419.009" height="1.039"/>
	</g>
	<g>
		<image overflow="visible" width="6" height="6" xlink:href="B06385C7.png"  transform="matrix(1 0 0 1 106 56)">
		</image>
	</g>
	<g>
		<g>
			<rect x="106.025" y="61.833" fill="#999999" width="1.039" height="228.505"/>
		</g>
	</g>
	<g>
		<g>
			<path fill="#999999" d="M108.881,293.344h-1.069c-0.985,0-1.787-0.802-1.787-1.787v-1.219h1.039v1.219
				c0,0.412,0.335,0.748,0.748,0.748h1.069V293.344z"/>
		</g>
	</g>
	<g>
		<g>
			<path fill="#999999" d="M532.338,293.344h-1.571v-1.039h1.571c0.412,0,0.748-0.335,0.748-0.747v-1.508h1.039v1.508
				C534.125,292.543,533.323,293.344,532.338,293.344z"/>
		</g>
	</g>
	<g>
		<g>
			<rect x="533.086" y="60.143" fill="#999999" width="1.039" height="229.907"/>
		</g>
	</g>
	<g>
		<image overflow="visible" width="5" height="5" xlink:href="B06385D9.png"  transform="matrix(1 0 0 1 530 56)">
		</image>
	</g>
</g>
<g>
	<g>
		<defs>
			<path id="SVGID_4_" d="M532.233,292.407H107.917c-0.7,0-1.267-0.566-1.267-1.265V58.023c0-0.698,0.567-1.265,1.266-1.265h424.317
				c0.699,0,1.267,0.566,1.267,1.265v233.12C533.5,291.842,532.933,292.407,532.233,292.407z"/>
		</defs>
		<clipPath id="SVGID_5_">
			<use xlink:href="#SVGID_4_"  overflow="visible"/>
		</clipPath>
		<rect x="106.65" y="56.758" clip-path="url(#SVGID_5_)" fill="#121212" width="426.85" height="235.649"/>
		<path clip-path="url(#SVGID_5_)" fill="#121212" d="M317.555,248.687c-48.117-0.177-93.936-5.726-135.593-15.608
			c-20.829-4.941-40.617-10.967-59.131-17.946c-4.629-1.744-9.178-3.549-13.644-5.411c-2.233-0.931-4.445-1.876-6.636-2.836h3.099
			V55.758H534.5v149.833h4.89c-8.62,3.888-17.586,7.55-26.868,10.972c-18.565,6.843-38.397,12.722-59.262,17.511
			C411.531,243.651,365.672,248.863,317.555,248.687z"/>
		<path clip-path="url(#SVGID_5_)" fill="#131313" d="M317.567,245.534c-47.328-0.174-92.396-5.631-133.371-15.353
			c-20.487-4.86-39.951-10.787-58.162-17.651c-9.105-3.433-17.897-7.1-26.348-10.985h5.964V55.758H534.5v147.388h1.265
			c-8.479,3.823-17.298,7.426-26.428,10.791c-18.262,6.73-37.768,12.514-58.29,17.224
			C410.002,240.582,364.895,245.708,317.567,245.534z"/>
		<path clip-path="url(#SVGID_5_)" fill="#141414" d="M317.579,242.382c-46.54-0.17-90.856-5.537-131.148-15.097
			c-20.146-4.779-39.285-10.607-57.192-17.357c-8.954-3.375-17.6-6.98-25.909-10.802h2.321V55.758H534.5v142.083h3.83
			c-2.043,0.967-4.105,1.92-6.19,2.86c-8.337,3.759-17.01,7.302-25.987,10.61c-17.957,6.619-37.139,12.306-57.318,16.938
			C408.473,237.512,364.117,242.553,317.579,242.382z"/>
		<path clip-path="url(#SVGID_5_)" fill="#151515" d="M317.59,239.23c-45.75-0.168-89.316-5.444-128.925-14.842
			c-19.804-4.698-38.619-10.427-56.223-17.063c-8.802-3.317-17.301-6.862-25.47-10.618c-2.042-0.938-4.063-1.892-6.064-2.856h4.742
			V55.758H534.5v136.794h6.059c-3.93,1.953-7.945,3.854-12.044,5.702c-8.196,3.696-16.721,7.178-25.547,10.432
			c-17.652,6.506-36.509,12.097-56.348,16.649C406.944,234.442,363.34,239.398,317.59,239.23z"/>
		<path clip-path="url(#SVGID_5_)" fill="#161616" d="M317.602,236.078c-44.961-0.165-87.776-5.351-126.702-14.586
			c-19.463-4.617-37.953-10.247-55.254-16.769c-8.65-3.261-17.003-6.744-25.031-10.436c-4.014-1.846-7.947-3.743-11.795-5.69h6.83
			V55.758H534.5v134.447h2.227c-3.863,1.92-7.81,3.788-11.837,5.604c-8.055,3.632-16.433,7.054-25.106,10.251
			c-17.349,6.395-35.88,11.889-55.376,16.363C405.415,231.373,362.563,236.243,317.602,236.078z"/>
		<path clip-path="url(#SVGID_5_)" fill="#171717" d="M317.613,232.926c-44.173-0.162-86.237-5.257-124.479-14.329
			c-19.121-4.537-37.288-10.068-54.284-16.476c-8.499-3.203-16.705-6.626-24.592-10.252c-3.944-1.813-7.808-3.678-11.588-5.591h2.98
			V55.758H534.5v129.234h4.022c-1.855,0.968-3.731,1.923-5.629,2.865c-3.795,1.886-7.672,3.722-11.629,5.506
			c-7.913,3.568-16.145,6.931-24.666,10.071c-17.044,6.282-35.25,11.681-54.404,16.076
			C403.886,228.303,361.786,233.088,317.613,232.926z"/>
		<path clip-path="url(#SVGID_5_)" fill="#181818" d="M317.625,229.773c-43.384-0.159-84.696-5.162-122.256-14.073
			c-18.78-4.456-36.622-9.889-53.315-16.181c-8.347-3.146-16.406-6.508-24.153-10.069c-3.873-1.781-7.667-3.612-11.381-5.491
			c-1.856-0.939-3.693-1.892-5.508-2.854h4.639V55.758H534.5V179.81h5.494C483.018,210.976,404.393,230.092,317.625,229.773z"/>
		<path clip-path="url(#SVGID_5_)" fill="#191919" d="M317.636,226.621c-85.19-0.313-162.246-19.648-217.96-50.657h5.974V55.758
			H534.5v121.808h1.463C480.021,208.165,402.826,226.934,317.636,226.621z"/>
		<path clip-path="url(#SVGID_5_)" fill="#1A1A1A" d="M317.648,223.469c-83.613-0.307-159.241-19.284-213.924-49.719h1.926V55.758
			H534.5v116.715h2.517c-1.674,0.961-3.369,1.911-5.085,2.849C477.026,205.354,401.261,223.776,317.648,223.469z"/>
		<path clip-path="url(#SVGID_5_)" fill="#1B1B1B" d="M317.659,220.316c-82.035-0.301-156.236-18.92-209.887-48.78
			c-1.677-0.934-3.333-1.877-4.969-2.833h2.847V55.758H534.5v111.664h3.257c-3.203,1.929-6.49,3.815-9.857,5.657
			C474.03,202.544,399.694,220.618,317.659,220.316z"/>
		<path clip-path="url(#SVGID_5_)" fill="#1C1C1C" d="M317.671,217.165c-80.458-0.296-153.232-18.558-205.851-47.843
			c-3.289-1.831-6.499-3.704-9.627-5.619h3.457V55.758H534.5v106.66h3.688c-1.529,0.967-3.08,1.923-4.651,2.869
			c-3.143,1.892-6.366,3.742-9.668,5.548C471.035,199.733,398.129,217.46,317.671,217.165z"/>
		<path clip-path="url(#SVGID_5_)" fill="#1D1D1D" d="M317.683,214.013c-78.88-0.29-150.228-18.193-201.815-46.905
			c-3.225-1.794-6.372-3.631-9.438-5.508c-1.533-0.938-3.046-1.887-4.54-2.846h3.76V55.758H534.5v101.708h3.814
			c-5.836,3.871-12.003,7.583-18.478,11.125C468.04,196.923,396.563,214.302,317.683,214.013z"/>
		<path clip-path="url(#SVGID_5_)" fill="#1E1E1E" d="M317.694,210.86c-77.302-0.284-147.223-17.829-197.779-45.967
			c-6.32-3.517-12.336-7.2-18.027-11.035h3.762v-98.1H534.5v96.813h3.641c-1.389,0.967-2.798,1.925-4.228,2.874
			c-5.719,3.793-11.763,7.432-18.108,10.902C465.044,194.112,394.996,211.145,317.694,210.86z"/>
		<path clip-path="url(#SVGID_5_)" fill="#1F1F1F" d="M317.706,207.708c-75.725-0.278-144.218-17.465-193.742-45.029
			c-6.191-3.445-12.085-7.053-17.66-10.81c-1.394-0.939-2.767-1.888-4.121-2.846h3.467V55.758H534.5v91.979h3.174
			c-2.639,1.932-5.36,3.828-8.162,5.686c-5.602,3.715-11.522,7.28-17.738,10.68C462.049,191.303,393.431,207.986,317.706,207.708z"
			/>
		<path clip-path="url(#SVGID_5_)" fill="#202020" d="M317.717,204.556c-74.147-0.272-141.214-17.102-189.706-44.09
			c-6.062-3.374-11.833-6.906-17.292-10.585c-2.729-1.839-5.381-3.715-7.951-5.626h2.881V55.758H534.5v84.295h6.11
			c-9.68,7.846-20.696,15.148-32.868,21.806C459.053,188.492,391.864,204.828,317.717,204.556z"/>
		<path clip-path="url(#SVGID_5_)" fill="#212121" d="M317.729,201.403c-72.57-0.267-138.209-16.737-185.67-43.152
			c-11.865-6.604-22.594-13.829-32.011-21.578h5.602V55.758H534.5v82.516h1.379c-9.474,7.679-20.255,14.826-32.168,21.342
			C456.058,185.682,390.299,201.67,317.729,201.403z"/>
		<path clip-path="url(#SVGID_5_)" fill="#222222" d="M317.741,198.251c-70.992-0.261-135.205-16.373-181.634-42.214
			c-11.607-6.46-22.103-13.528-31.315-21.109h0.858v-79.17H534.5v75.005h3.356c-2.154,1.942-4.391,3.853-6.708,5.731
			c-9.268,7.512-19.814,14.503-31.469,20.878C453.062,182.871,388.732,198.512,317.741,198.251z"/>
		<path clip-path="url(#SVGID_5_)" fill="#232323" d="M317.752,195.099c-69.414-0.255-132.2-16.009-177.597-41.276
			c-11.349-6.316-21.612-13.228-30.619-20.639c-2.252-1.853-4.426-3.737-6.518-5.651h2.632V55.758H534.5v67.566h4.551
			c-3.884,3.917-8.103,7.717-12.633,11.39c-9.062,7.345-19.375,14.181-30.771,20.414
			C450.066,180.061,387.166,195.354,317.752,195.099z"/>
		<path clip-path="url(#SVGID_5_)" fill="#242424" d="M317.764,191.947c-67.837-0.249-129.196-15.646-173.561-40.338
			c-11.091-6.173-21.121-12.927-29.923-20.17c-4.401-3.622-8.496-7.366-12.264-11.221h3.635V55.758H534.5v60.221h4.979
			c-1.732,1.969-3.549,3.911-5.446,5.824c-3.796,3.827-7.918,7.542-12.347,11.131c-8.855,7.178-18.934,13.858-30.07,19.95
			C447.07,177.25,385.601,192.196,317.764,191.947z"/>
		<path clip-path="url(#SVGID_5_)" fill="#252525" d="M317.775,188.795c-66.259-0.243-126.191-15.282-169.525-39.4
			c-10.833-6.029-20.629-12.626-29.228-19.701c-4.299-3.538-8.299-7.195-11.979-10.96c-1.84-1.883-3.6-3.792-5.278-5.728h3.883
			V55.758H534.5v52.989h4.661c-12.2,15.794-29.821,29.994-51.576,41.894C444.075,174.439,384.034,189.038,317.775,188.795z"/>
		<path clip-path="url(#SVGID_5_)" fill="#262626" d="M317.787,185.643c-64.681-0.237-123.187-14.918-165.488-38.462
			c-21.151-11.772-38.251-25.759-50.047-41.265h3.398V55.758H534.5v45.889h3.617c-1.32,1.975-2.727,3.926-4.215,5.854
			c-11.91,15.418-29.112,29.28-50.35,40.896C441.079,171.629,382.469,185.88,317.787,185.643z"/>
		<path clip-path="url(#SVGID_5_)" fill="#272727" d="M317.798,182.49c-63.104-0.231-120.182-14.555-161.452-37.524
			c-20.635-11.485-37.318-25.131-48.826-40.258c-2.877-3.782-5.431-7.656-7.642-11.613h5.772V55.758H534.5v38.94h1.869
			c-2.24,3.94-4.822,7.795-7.727,11.556c-11.619,15.042-28.402,28.566-49.121,39.899
			C438.084,168.819,380.902,182.722,317.798,182.49z"/>
		<path clip-path="url(#SVGID_5_)" fill="#282828" d="M317.81,179.338c-61.526-0.226-117.178-14.19-157.416-36.585
			c-20.119-11.198-36.385-24.503-47.605-39.252c-5.61-7.375-9.959-15.11-12.898-23.124h5.759V55.758H534.5v1.461h6.567
			C540.818,125.116,440.862,179.79,317.81,179.338z"/>
		<path clip-path="url(#SVGID_5_)" fill="#292929" d="M317.821,176.186c-119.897-0.44-216.896-54.427-216.653-120.582l4.482,0.154
			H534.5v1.44h0.854C535.112,123.354,437.719,176.626,317.821,176.186z"/>
		<path clip-path="url(#SVGID_5_)" fill="#2A2A2A" d="M317.833,173.034c-116.742-0.429-211.188-52.994-210.952-117.408v0.133
			h422.508v-4.583c0.176,1.988,0.261,3.99,0.253,6.002C529.405,121.592,434.575,173.462,317.833,173.034z"/>
		<path clip-path="url(#SVGID_5_)" fill="#2B2B2B" d="M317.845,169.881c-113.587-0.417-205.481-51.562-205.251-114.235v0.112
			h411.089v-4.442c0.171,1.935,0.254,3.882,0.246,5.841C523.698,119.83,431.432,170.298,317.845,169.881z"/>
		<path clip-path="url(#SVGID_5_)" fill="#2C2C2C" d="M317.856,166.729c-110.432-0.405-199.773-50.129-199.55-111.062v0.091h399.67
			v-4.301c0.166,1.881,0.246,3.774,0.239,5.679C517.992,118.068,428.288,167.135,317.856,166.729z"/>
		<path clip-path="url(#SVGID_5_)" fill="#2D2D2D" d="M317.868,163.577C210.591,163.183,123.802,114.88,124.02,55.688v0.07h388.25
			v-4.16c0.161,1.828,0.239,3.667,0.232,5.517C512.285,116.306,425.145,163.971,317.868,163.577z"/>
		<path clip-path="url(#SVGID_5_)" fill="#2E2E2E" d="M317.879,160.425c-104.122-0.382-188.357-47.265-188.146-104.715v0.049
			h376.832V51.74c0.156,1.773,0.232,3.559,0.226,5.354C506.579,114.544,422.001,160.807,317.879,160.425z"/>
		<path clip-path="url(#SVGID_5_)" fill="#2F2F2F" d="M317.891,157.272c-100.966-0.371-182.65-45.833-182.445-101.542v0.028h365.413
			v-3.877c0.151,1.72,0.225,3.451,0.219,5.192C500.872,112.783,418.857,157.643,317.891,157.272z"/>
		<path clip-path="url(#SVGID_5_)" fill="#313131" d="M317.902,154.121c-97.811-0.359-176.942-44.401-176.744-98.369v0.007h353.994
			v-3.736c0.146,1.666,0.218,3.343,0.212,5.03C495.166,111.021,415.714,154.479,317.902,154.121z"/>
		<path clip-path="url(#SVGID_5_)" fill="#323232" d="M317.914,150.968C223.258,150.621,146.68,108,146.872,55.772
			c0.006-1.632,0.087-3.254,0.241-4.866v4.852h342.333v-3.594c0.143,1.612,0.212,3.235,0.206,4.867
			C489.459,109.259,412.57,151.316,317.914,150.968z"/>
		<path clip-path="url(#SVGID_5_)" fill="#333333" d="M317.926,147.816c-91.501-0.336-165.526-41.536-165.341-92.022
			c0.006-1.578,0.084-3.146,0.233-4.704v4.668h330.922v-3.453c0.138,1.559,0.204,3.127,0.199,4.705
			C483.753,107.497,409.427,148.152,317.926,147.816z"/>
		<path clip-path="url(#SVGID_5_)" fill="#343434" d="M317.937,144.664c-88.345-0.324-159.818-40.104-159.639-88.849
			c0.005-1.523,0.081-3.038,0.225-4.541v4.485h319.511v-3.312c0.133,1.505,0.197,3.02,0.191,4.543
			C478.046,105.735,406.282,144.988,317.937,144.664z"/>
		<path clip-path="url(#SVGID_5_)" fill="#353535" d="M317.949,141.512c-85.19-0.313-154.111-38.671-153.938-85.676
			c0.005-1.469,0.078-2.929,0.217-4.379v4.302h308.1v-3.17c0.128,1.451,0.19,2.912,0.185,4.38
			C472.34,103.973,403.139,141.824,317.949,141.512z"/>
		<path clip-path="url(#SVGID_5_)" fill="#363636" d="M317.96,138.359c-82.035-0.301-148.403-37.239-148.237-82.503
			c0.005-1.415,0.075-2.82,0.209-4.217v4.119h296.688v-3.029c0.123,1.397,0.184,2.804,0.178,4.218
			C466.633,102.211,399.995,138.661,317.96,138.359z"/>
		<path clip-path="url(#SVGID_5_)" fill="#373737" d="M317.972,135.207c-78.88-0.29-142.695-35.807-142.536-79.33
			c0.005-1.36,0.073-2.712,0.201-4.055v3.936h284.741v-6.892c0.479,2.651,0.718,5.34,0.708,8.06
			C460.926,100.449,396.852,135.497,317.972,135.207z"/>
		<path clip-path="url(#SVGID_5_)" fill="#383838" d="M317.983,132.055c-75.725-0.278-136.987-34.375-136.833-76.156
			c0.004-1.306,0.069-2.604,0.192-3.893v3.752h273.351v-6.591c0.459,2.545,0.689,5.126,0.68,7.738
			C455.22,98.688,393.708,132.333,317.983,132.055z"/>
		<path clip-path="url(#SVGID_5_)" fill="#393939" d="M317.995,128.903c-72.569-0.267-131.279-32.942-131.132-72.983
			c0.004-1.251,0.066-2.495,0.185-3.73v3.569h261.961v-6.29c0.439,2.439,0.66,4.913,0.651,7.416
			C449.513,96.925,390.564,129.169,317.995,128.903z"/>
		<path clip-path="url(#SVGID_5_)" fill="#3A3A3A" d="M318.007,125.75c-69.415-0.255-125.572-31.51-125.431-69.81
			c0.009-2.394,0.237-4.759,0.675-7.088v6.906h250.074v-5.988c0.421,2.333,0.632,4.699,0.623,7.093
			C443.807,95.164,387.421,126.005,318.007,125.75z"/>
		<path clip-path="url(#SVGID_5_)" fill="#3B3B3B" d="M318.018,122.598c-66.259-0.243-119.864-30.078-119.729-66.637
			c0.008-2.285,0.227-4.542,0.645-6.766v6.563H437.64v-5.687c0.401,2.227,0.603,4.485,0.595,6.771
			C438.1,93.401,384.277,122.841,318.018,122.598z"/>
		<path clip-path="url(#SVGID_5_)" fill="#3C3C3C" d="M318.03,119.446c-63.104-0.231-114.156-28.645-114.028-63.463
			c0.008-2.176,0.216-4.326,0.614-6.444v6.22h227.34v-5.385c0.382,2.121,0.574,4.272,0.566,6.448
			C432.394,91.64,381.134,119.678,318.03,119.446z"/>
		<path clip-path="url(#SVGID_5_)" fill="#3D3D3D" d="M318.042,116.294c-59.949-0.22-108.448-27.213-108.327-60.291
			c0.007-2.067,0.205-4.109,0.583-6.121v5.876h215.973v-5.083c0.363,2.015,0.545,4.058,0.538,6.125
			C426.687,89.878,377.99,116.514,318.042,116.294z"/>
		<path clip-path="url(#SVGID_5_)" fill="#3E3E3E" d="M318.053,113.142c-56.794-0.208-102.741-25.781-102.625-57.118
			c0.007-1.958,0.194-3.893,0.552-5.799v5.534h204.606v-4.782c0.344,1.909,0.517,3.845,0.509,5.803
			C420.98,88.116,374.847,113.35,318.053,113.142z"/>
		<path clip-path="url(#SVGID_5_)" fill="#3F3F3F" d="M318.064,109.989c-53.638-0.197-97.033-24.349-96.924-53.944
			c0.007-1.85,0.183-3.677,0.521-5.477v5.19H414.9v-4.481c0.325,1.803,0.488,3.631,0.481,5.481
			C415.273,86.354,371.703,110.187,318.064,109.989z"/>
		<path clip-path="url(#SVGID_5_)" fill="#404040" d="M318.076,106.837c-50.483-0.186-91.325-22.917-91.223-50.771
			c0.006-1.741,0.172-3.46,0.491-5.155v4.847h181.872v-4.179c0.307,1.696,0.46,3.417,0.453,5.158
			C409.566,84.592,368.56,107.022,318.076,106.837z"/>
		<path clip-path="url(#SVGID_5_)" fill="#414141" d="M318.088,103.685c-47.328-0.174-85.617-21.484-85.521-47.598
			c0.006-1.632,0.162-3.244,0.46-4.833v4.504h170.504V51.88c0.287,1.59,0.431,3.204,0.425,4.836
			C403.86,82.83,365.416,103.859,318.088,103.685z"/>
		<path clip-path="url(#SVGID_5_)" fill="#424242" d="M318.099,100.533c-44.172-0.162-79.909-20.052-79.82-44.425
			c0.006-1.523,0.151-3.028,0.43-4.511v4.161h159.138v-3.577c0.268,1.485,0.402,2.99,0.396,4.514
			C398.153,81.068,362.272,100.695,318.099,100.533z"/>
		<path clip-path="url(#SVGID_5_)" fill="#434343" d="M318.111,97.38c-41.018-0.15-74.202-18.619-74.118-41.251
			c0.005-1.415,0.14-2.812,0.398-4.188v3.818h147.771v-3.275c0.248,1.378,0.373,2.776,0.368,4.191
			C392.447,79.307,359.128,97.531,318.111,97.38z"/>
		<path clip-path="url(#SVGID_5_)" fill="#444444" d="M318.123,94.229c-37.862-0.139-68.494-17.188-68.417-38.079
			c0.005-1.306,0.129-2.595,0.368-3.866v3.475h135.378v-6.733c0.904,2.466,1.375,5.017,1.365,7.628
			C386.74,77.544,355.984,94.367,318.123,94.229z"/>
		<path clip-path="url(#SVGID_5_)" fill="#454545" d="M318.134,91.076c-34.707-0.127-62.786-15.755-62.715-34.905
			c0.009-2.394,0.457-4.729,1.302-6.983v6.571h123.133V49.64c0.828,2.26,1.26,4.599,1.251,6.993
			C381.034,75.783,352.841,91.204,318.134,91.076z"/>
		<path clip-path="url(#SVGID_5_)" fill="#464646" d="M318.146,87.924c-31.552-0.116-57.078-14.323-57.014-31.732
			c0.008-2.176,0.416-4.299,1.184-6.349v5.915h111.938v-5.504c0.754,2.055,1.146,4.181,1.138,6.357
			C375.327,74.021,349.697,88.04,318.146,87.924z"/>
		<path clip-path="url(#SVGID_5_)" fill="#474747" d="M318.157,84.771c-28.397-0.104-51.37-12.89-51.313-28.559
			c0.007-1.958,0.374-3.87,1.065-5.714v5.259h100.744v-4.889c0.679,1.849,1.031,3.763,1.023,5.721
			C369.621,72.259,346.554,84.876,318.157,84.771z"/>
		<path clip-path="url(#SVGID_5_)" fill="#484848" d="M318.169,81.62c-25.242-0.093-45.663-11.458-45.611-25.386
			c0.006-1.741,0.332-3.439,0.947-5.079v4.603h89.551v-4.274c0.603,1.644,0.916,3.345,0.909,5.086
			C363.914,70.497,343.41,81.712,318.169,81.62z"/>
		<path clip-path="url(#SVGID_5_)" fill="#494949" d="M318.18,78.467c-22.086-0.081-39.955-10.026-39.91-22.212
			c0.005-1.523,0.291-3.009,0.829-4.444v3.947h78.357v-3.66c0.527,1.438,0.802,2.927,0.796,4.45
			C358.207,68.735,340.267,78.548,318.18,78.467z"/>
		<path clip-path="url(#SVGID_5_)" fill="#4A4A4A" d="M318.192,75.315c-18.931-0.069-34.247-8.594-34.208-19.039
			c0.01-2.611,0.978-5.096,2.721-7.352v6.834h63.169v-6.603c1.726,2.269,2.676,4.76,2.666,7.372
			C352.501,66.973,337.123,75.384,318.192,75.315z"/>
		<path clip-path="url(#SVGID_5_)" fill="#4B4B4B" d="M318.204,72.163c-15.776-0.058-28.539-7.161-28.507-15.866
			c0.008-2.176,0.815-4.247,2.268-6.126v5.588h52.64v-5.395c1.439,1.891,2.23,3.967,2.223,6.144
			C346.794,65.211,333.979,72.221,318.204,72.163z"/>
		<path clip-path="url(#SVGID_5_)" fill="#4C4C4C" d="M318.215,69.011c-12.621-0.046-22.831-5.729-22.806-12.693
			c0.007-1.741,0.652-3.397,1.814-4.901v4.342h42.113v-4.187c1.15,1.513,1.784,3.173,1.777,4.914
			C341.088,63.449,330.836,69.057,318.215,69.011z"/>
		<path clip-path="url(#SVGID_5_)" fill="#4D4D4D" d="M318.227,65.858c-9.465-0.035-17.124-4.297-17.104-9.52
			c0.009-2.611,1.937-4.969,5.044-6.668v6.088h24.238v-5.999c3.095,1.723,5.005,4.094,4.995,6.706
			C335.381,61.688,327.692,65.893,318.227,65.858z"/>
		
			<ellipse transform="matrix(-0.0037 1 -1 -0.0037 375.8335 -261.6502)" clip-path="url(#SVGID_5_)" fill="#4E4E4E" cx="318.261" cy="56.402" rx="6.304" ry="11.426"/>
		
			<ellipse transform="matrix(-0.0036 1 -1 -0.0036 375.8213 -261.6524)" clip-path="url(#SVGID_5_)" fill="#4F4F4F" cx="318.261" cy="56.402" rx="3.152" ry="5.713"/>
	</g>
</g>
<radialGradient id="SVGID_6_" cx="320.2021" cy="294.4609" r="11.3911" gradientTransform="matrix(1.561 0 0 0.1756 -179.8345 251.92)" gradientUnits="userSpaceOnUse">
	<stop  offset="0" style="stop-color:#FF0000"/>
	<stop  offset="0.111" style="stop-color:#D50000"/>
	<stop  offset="0.2957" style="stop-color:#950000"/>
	<stop  offset="0.4723" style="stop-color:#600000"/>
	<stop  offset="0.6357" style="stop-color:#360000"/>
	<stop  offset="0.7831" style="stop-color:#190000"/>
	<stop  offset="0.9095" style="stop-color:#060000"/>
	<stop  offset="1" style="stop-color:#000000"/>
</radialGradient>
<ellipse fill="url(#SVGID_6_)" cx="320" cy="303.627" rx="17.781" ry="2"/>
</svg>
