<?xml version="1.0" encoding="UTF-8"?>
<svg  version="1.1" viewBox="0 0 1200 1200" xmlns="http://www.w3.org/2000/svg" fill="#fff">
 <path d="m1092 228.66h-984c-9.9375 0-18 8.0625-18 18v615.42c0 9.9375 8.0625 18 18 18h295.13l-60.609 60.609c-5.1562 5.1562-6.7031 12.891-3.8906 19.641 2.7656 6.75 9.3281 11.109 16.641 11.109h489.52c7.2656 0 13.828-4.3594 16.641-11.109 2.7656-6.75 1.2656-14.484-3.8906-19.641l-60.609-60.609 295.08-0.046875c9.9375 0 18-8.0625 18-18v-615.37c0-9.9844-8.0625-18-18-18zm-290.68 706.69h-402.66l55.312-55.312h291.98zm272.68-91.312h-948v-579.37h948z"/>
</svg>
