<?xml version="1.0" encoding="UTF-8"?>
<svg  version="1.1" viewBox="0 0 1200 1200" xmlns="http://www.w3.org/2000/svg" fill="#fff">
 <path d="m340.04 833.99c-2.0664 6.2656-0.67969 13.156 3.6484 18.137 4.3242 4.9766 10.953 7.3125 17.445 6.1406 6.4922-1.1719 11.887-5.6758 14.199-11.855 0 0 38.609-109.61 42.75-121.36l114.71-66.227c12.559 14 29.387 23.461 47.875 26.918v133.2c-17.855 20.832-83.723 97.676-83.719 97.676l-0.003907-0.003906c-4.1992 5.0898-5.4062 12.012-3.1758 18.223 2.2305 6.207 7.5664 10.781 14.043 12.035 6.4766 1.2578 13.137-0.99609 17.523-5.9219l55.332-64.547v96.5-0.003906c0.10156 6.6172 3.6875 12.688 9.4336 15.965 5.7461 3.2773 12.797 3.2773 18.543 0 5.75-3.2812 9.3359-9.3516 9.4336-15.965v-96.5l55.332 64.547 0.003906 0.003906c4.3906 4.9062 11.039 7.1445 17.504 5.8867 6.4648-1.2578 11.793-5.8242 14.023-12.02 2.2305-6.1992 1.0391-13.113-3.1406-18.203l-83.723-97.672v-133.2c18.488-3.4492 35.316-12.914 47.875-26.918l114.71 66.227 42.75 121.37c2.2969 6.1992 7.6953 10.73 14.199 11.91 6.5078 1.1836 13.156-1.1562 17.484-6.1523 4.332-4.9961 5.7031-11.91 3.6094-18.184l-28.246-80.195c2.1367 0.36328 92.598 56.012 92.895 50.746v0.003906c5.4727-0.10938 10.625-2.5938 14.117-6.8086 3.4922-4.2148 4.9766-9.7422 4.0625-15.137-0.91016-5.3984-4.125-10.129-8.8086-12.965 0 0-37.172-21.461-83.555-48.238 33.125-6.2031 83.555-15.645 83.551-15.645h0.003906c6.4609-1.3398 11.738-5.9805 13.891-12.219 2.1523-6.2383 0.86328-13.148-3.3945-18.188-4.2578-5.0391-10.855-7.4648-17.363-6.3828 0 0-114.25 21.391-126.48 23.68-46.906-27.082-93.355-53.898-115.71-66.805 5.2031-17.668 5.2031-36.461 0-54.129l115.7-66.801 126.49 23.68v0.003906c6.5 1.0586 13.078-1.375 17.324-6.4102 4.2461-5.0312 5.5352-11.93 3.3906-18.156-2.1445-6.2266-7.4023-10.871-13.848-12.227l-83.555-15.645 83.555-48.238c5.6406-3.4141 9.0664-9.543 9.0234-16.137-0.046875-6.5938-3.5586-12.676-9.2422-16.012-5.6875-3.3359-12.711-3.4336-18.488-0.25781 0 0-37.172 21.465-83.559 48.242l28.246-80.195v0.003906c2.043-6.2578 0.64453-13.133-3.6758-18.098-4.3242-4.9648-10.938-7.293-17.418-6.1289-6.4805 1.1641-11.875 5.6445-14.199 11.805 0 0-38.609 109.61-42.75 121.36-46.219 26.684-91.988 53.109-114.71 66.227-12.559-14-29.387-23.461-47.875-26.914v-133.2c17.855-20.832 83.723-97.676 83.719-97.676h0.003906c4.1992-5.0898 5.4062-12.012 3.1758-18.223-2.2305-6.207-7.5664-10.781-14.043-12.035-6.4766-1.2539-13.137 0.99609-17.523 5.9258l-55.332 64.547v-96.5c-0.10156-6.6133-3.6875-12.684-9.4336-15.965-5.7461-3.2773-12.797-3.2773-18.543 0.003906-5.75 3.2773-9.3359 9.3477-9.4336 15.965v96.496c-21.934-25.586-55.332-64.547-55.332-64.547-4.3867-4.9258-11.043-7.1758-17.52-5.9219-6.4766 1.2539-11.812 5.8281-14.043 12.035-2.2305 6.207-1.0234 13.129 3.1719 18.219l83.723 97.676v133.2-0.003906c-18.488 3.4531-35.316 12.918-47.871 26.922l-114.71-66.227-42.75-121.37c-2.3281-6.1602-7.7188-10.641-14.199-11.801-6.4805-1.1641-13.094 1.1641-17.414 6.1289-4.3242 4.9648-5.7188 11.836-3.6758 18.094l28.246 80.195-83.562-48.242v-0.003906c-5.7891-3.3242-12.91-3.3125-18.688 0.027343-5.7812 3.3438-9.3398 9.5117-9.3438 16.188-0.003907 6.6719 3.5508 12.844 9.3242 16.195l83.555 48.238c-33.125 6.2031-83.555 15.645-83.551 15.645h-0.003906c-6.0742 1.25-11.137 5.4219-13.523 11.148s-1.7852 12.262 1.6055 17.457c3.3906 5.1953 9.1328 8.375 15.332 8.4961 1.1602-0.007812 2.3125-0.10938 3.4531-0.3125 0 0 114.25-21.391 126.49-23.68l115.71 66.805v-0.003906c-5.2031 17.668-5.2031 36.461 0 54.129-22.352 12.902-68.797 39.723-115.71 66.801l-126.48-23.68c-6.5234-1.1133-13.152 1.2969-17.434 6.3477-4.2773 5.0469-5.5703 11.98-3.4023 18.234 2.168 6.2539 7.4766 10.895 13.965 12.211l83.555 15.645c-46.383 26.777-83.555 48.238-83.555 48.238-5.5781 3.4414-8.9531 9.5508-8.8906 16.109 0.066407 6.5547 3.5547 12.602 9.1992 15.934 5.6484 3.3359 12.625 3.4727 18.398 0.35938l83.559-48.242c-10.664 30.285-28.246 80.191-28.246 80.191zm259.33-287.09c18.395 0.20312 35.312 10.137 44.453 26.102 9.1406 15.969 9.1406 35.586 0 51.555-9.1406 15.965-26.055 25.898-44.453 26.105-18.398-0.20703-35.312-10.137-44.453-26.105s-9.1406-35.582 0-51.551 26.055-25.902 44.453-26.105z"/>
 <path d="m995.46 255.97 28.645 3.5195-0.003906 0.003907c6.5742 0.69922 13.027-2.1211 16.98-7.4219 3.9492-5.2969 4.8086-12.289 2.2617-18.387-2.5508-6.1016-8.1289-10.402-14.676-11.312l-71.609-8.8242c-4.9297-0.66406-9.9258 0.6875-13.848 3.75s-6.4453 7.5781-6.9961 12.527l-8.8242 71.609h0.003906c-0.6875 6.5625 2.1406 13.004 7.4336 16.941 5.2969 3.9414 12.273 4.8008 18.367 2.2617 6.0898-2.5391 10.391-8.1016 11.316-14.637l2.9453-23.867c355.67 423.82-148.4 1024-635.41 722.94-5.5781-3.5195-12.598-3.8438-18.477-0.84766-5.875 2.9961-9.7422 8.8633-10.172 15.449-0.42969 6.582 2.6406 12.902 8.0781 16.637 514.18 327.12 1070.3-322.55 683.98-780.34z"/>
 <path d="m231.52 890.86-1.9805 22.953c-353.75-418.43 156.85-1026.1 637.17-721.33 5.5781 3.5391 12.609 3.8711 18.496 0.875 5.8906-2.9961 9.7617-8.875 10.188-15.465 0.42578-6.5938-2.6602-12.922-8.1133-16.648-85.441-56.344-185.55-86.332-287.9-86.242-441.67-1.7109-686.59 524.65-401.06 860.52-13.457-1.8867-26.52-3.7188-26.52-3.7188-6.5469-0.78906-13.031 1.9297-17.055 7.1562-4.0273 5.2266-5.0039 12.188-2.5664 18.32 2.4336 6.1328 7.918 10.527 14.434 11.57l75.043 10.523v-0.003906c5.0781 0.67969 10.215-0.74219 14.219-3.9336 4.0078-3.1914 6.5391-7.8789 7.0078-12.98l5.9023-68.375c0.44922-6.5898-2.6055-12.926-8.043-16.672-5.4375-3.75-12.445-4.3555-18.441-1.5938-6 2.7617-10.098 8.4805-10.781 15.051z"/>
</svg>
